<?xml version="1.0" encoding="UTF-8" standalone="no"?>
<!-- Generator: Adobe Illustrator 16.0.0, SVG Export Plug-In . SVG Version: 6.00 Build 0)  -->

<svg
   version="1.1"
   id="Layer_1"
   x="0px"
   y="0px"
   width="168.77px"
   height="83.384px"
   viewBox="0 0 168.77 83.384"
   enable-background="new 0 0 168.77 83.384"
   xml:space="preserve"
   sodipodi:docname="stick_eva.svg"
   inkscape:version="1.1.1 (3bf5ae0d25, 2021-09-20)"
   xmlns:inkscape="http://www.inkscape.org/namespaces/inkscape"
   xmlns:sodipodi="http://sodipodi.sourceforge.net/DTD/sodipodi-0.dtd"
   xmlns="http://www.w3.org/2000/svg"
   xmlns:svg="http://www.w3.org/2000/svg"><defs
   id="defs16853" /><sodipodi:namedview
   id="namedview16851"
   pagecolor="#ffffff"
   bordercolor="#666666"
   borderopacity="1.0"
   inkscape:pageshadow="2"
   inkscape:pageopacity="0.0"
   inkscape:pagecheckerboard="0"
   showgrid="false"
   inkscape:zoom="6.7192035"
   inkscape:cx="84.385002"
   inkscape:cy="41.74602"
   inkscape:window-width="1920"
   inkscape:window-height="1017"
   inkscape:window-x="-8"
   inkscape:window-y="-8"
   inkscape:window-maximized="1"
   inkscape:current-layer="Layer_1" />
<g
   id="g16797">
	<g
   id="g16781">
		<path
   fill="#1A1A1A"
   d="M168.77,41.703c0,23.02-18.664,41.681-41.7,41.681c-23.023,0-41.685-18.661-41.685-41.681    C85.385,18.663,104.047,0,127.07,0C150.105,0,168.77,18.663,168.77,41.703z"
   id="path16777"
   style="fill:#005500" />
		<path
   fill="#404040"
   d="m 127.07475,20.843 c -0.005,0 -0.0105,0 -0.0165,0 -0.002,0 -0.004,0 -0.005,0 -0.004,0 -0.008,0 -0.0105,0 -0.002,0 -0.004,0 -0.007,0 -0.003,0 -0.007,0 -0.01,0 -0.002,0 -0.005,0 -0.007,0 -0.004,0 -0.006,0 -0.01,0 -0.002,0 -0.005,0 -0.007,0 -0.004,0 -0.007,0 -0.01,0 -0.002,0 -0.004,0 -0.007,0 -0.004,0 -0.007,0 -0.01,0 -0.002,0 -0.005,0 -0.007,0 -0.003,0 -0.007,0 -0.01,0 -0.002,0 -0.004,0 -0.007,0 -0.003,0 -0.006,0 -0.009,0 -0.003,0 -0.005,0 -0.008,0 -0.003,0 -0.005,0 -0.008,0 -0.003,0 -0.005,0 -0.008,0 -0.003,0 -0.006,0 -0.009,0 -0.003,0 -0.005,0 -0.008,0 -0.002,0 -0.007,0 -0.01,0 -0.002,0 -0.004,0 -0.007,0 -0.002,0 -0.007,0 -0.01,0 -0.002,0 -0.005,0 -0.007,0 -0.004,0 -0.007,0 -0.0115,0 -0.001,0 -0.003,0 -0.004,0 -0.006,0 -0.0105,0 -0.0165,0 -0.001,0 -0.003,0 -0.004,0 -0.004,0 -0.008,0 -0.0115,0 -0.003,0 -0.006,0 -0.008,0 -0.002,0 -0.005,0 -0.008,0 -0.003,0 -0.006,0 -0.009,0 -0.002,0 -0.005,0 -0.008,0 -0.003,0 -0.006,0 -0.009,0 -0.003,0 -0.004,0 -0.007,0 -0.003,0 -0.006,0 -0.01,0 -0.002,0 -0.005,0 -0.007,0 -0.003,0 -0.006,0 -0.009,0 -0.002,0 -0.005,0 -0.007,0 -0.003,0 -0.006,0 -0.01,0 -0.002,0 -0.004,0 -0.007,0 -0.003,0 -0.006,0 -0.009,0 -0.002,0 -0.005,0 -0.007,0 -0.003,0 -0.007,0 -0.01,0 -0.002,0 -0.005,0 -0.007,0 -0.003,0 -0.006,0 -0.01,0 -0.001,0 -0.004,0 -0.005,0 -0.004,0 -0.008,0 -0.011,0 -10e-4,0 -0.002,0 -0.004,0 -0.004,0 -0.008,0 -0.012,0 -5e-4,0 -0.002,0 -0.002,0 -0.025,5e-4 -0.05,0.001 -0.0745,0.0015 -5e-4,0 -10e-4,0 -0.002,0 -0.004,0 -0.009,0 -0.0135,5e-4 -5e-4,0 -0.001,0 -0.002,0 -0.004,0 -0.009,0 -0.014,0 -5e-4,0 -0.001,0 -0.002,0 -0.005,0 -0.01,0 -0.014,5e-4 -5e-4,0 -10e-4,0 -0.002,0 -0.004,0 -0.009,0 -0.0135,5e-4 -5e-4,0 -0.002,0 -0.003,0 -0.004,0 -0.009,0 -0.014,0 h -10e-4 c -0.005,0 -0.01,5e-4 -0.0145,5e-4 h -5e-4 c -0.0105,0 -0.0205,5e-4 -0.031,0.001 v 0 c -0.125,0.0035 -0.2495,0.0085 -0.3735,0.0145 l 0.4715,9.989 c 0.1745,-0.0085 0.3525,-0.0125 0.528,-0.0125 V 20.843 h 0.003 z m -1.9975,0.0945 c -0.028,0.0025 -0.0565,0.0055 -0.0845,0.0085 0,0 0,0 0,0 -0.005,5e-4 -0.01,10e-4 -0.0145,0.0015 -0.002,0 -0.003,0 -0.005,0 -0.004,5e-4 -0.007,5e-4 -0.0105,10e-4 -0.002,0 -0.005,5e-4 -0.007,5e-4 -0.002,0 -0.005,5e-4 -0.007,10e-4 -0.004,0 -0.007,5e-4 -0.0105,0.001 -10e-4,0 -0.002,0 -0.004,0 -0.004,5e-4 -0.008,0.001 -0.013,0.0015 h -0.001 c -0.2805,0.029 -0.559,0.063 -0.836,0.103 l 1.422,9.8985 c 0.171,-0.0245 0.345,-0.0455 0.5175,-0.062 l -0.947,-9.9545 z m -1.9785,0.2845 c -0.015,0.003 -0.0305,0.006 -0.0455,0.009 -5e-4,0 -5e-4,0 -0.001,0 -0.005,5e-4 -0.008,0.0015 -0.013,0.0025 -10e-4,0 -10e-4,0 -0.003,5e-4 -0.004,10e-4 -0.008,0.0015 -0.0115,0.0025 -10e-4,0 -0.002,5e-4 -0.004,5e-4 -0.004,5e-4 -0.008,0.0015 -0.011,0.002 -10e-4,0 -0.003,5e-4 -0.004,10e-4 -0.004,5e-4 -0.007,0.001 -0.0105,0.002 -0.001,0 -0.004,10e-4 -0.005,10e-4 -0.003,5e-4 -0.006,0.001 -0.009,0.0015 -0.002,5e-4 -0.005,0.001 -0.007,0.0015 -0.003,5e-4 -0.005,0.001 -0.008,0.0015 -0.002,0 -0.005,0.001 -0.007,0.0015 -0.002,5e-4 -0.005,0.001 -0.008,0.0015 -0.002,5e-4 -0.005,0.001 -0.008,0.0015 -0.002,5e-4 -0.005,0.001 -0.007,0.0015 -0.002,5e-4 -0.006,0.001 -0.009,0.0015 -0.002,5e-4 -0.004,5e-4 -0.006,0.001 -0.004,5e-4 -0.007,0.001 -0.0105,0.002 -10e-4,0 -0.003,5e-4 -0.005,0.001 -0.004,5e-4 -0.007,0.0015 -0.011,0.002 -0.002,0 -0.003,5e-4 -0.005,0.001 -0.004,5e-4 -0.007,0.0015 -0.0115,0.002 -10e-4,5e-4 -0.003,5e-4 -0.004,0.001 -0.004,5e-4 -0.009,0.002 -0.0135,0.0025 -5e-4,0 -10e-4,0 -0.002,0 -0.005,0.001 -0.009,0.002 -0.015,0.003 0,0 -5e-4,0 -5e-4,0 -0.2415,0.05 -0.482,0.104 -0.7205,0.162 l 2.368,9.7155 c 0.1665,-0.0405 0.3365,-0.0775 0.5055,-0.1105 l -1.896,-9.8155 z m -1.9425,0.4735 c -0.135,0.04 -0.268,0.0805 -0.4015,0.123 0,0 -5e-4,0 -5e-4,0 -0.0105,0.003 -0.0205,0.0065 -0.0305,0.01 v 0 c -0.009,0.003 -0.019,0.006 -0.0285,0.009 -5e-4,0 -0.002,5e-4 -0.002,5e-4 -0.008,0.0025 -0.017,0.0055 -0.025,0.008 -0.1555,0.05 -0.31,0.102 -0.4635,0.156 l 3.2955,9.4415 c 0.162,-0.0565 0.327,-0.11 0.4915,-0.158 l -2.835,-9.59 z m -1.8875,0.6585 c -0.3095,0.125 -0.616,0.258 -0.9175,0.397 l 4.1905,9.0795 c 0.156,-0.072 0.3155,-0.141 0.475,-0.2055 z m -1.8155,0.838 c -0.296,0.1545 -0.588,0.3155 -0.875,0.4835 l 5.044,8.635 c 0.149,-0.087 0.302,-0.1715 0.4545,-0.251 z m -1.726,1.0085 c -0.2795,0.182 -0.5545,0.37 -0.825,0.565 l 5.8475,8.1125 c 0.1405,-0.1015 0.285,-0.2 0.43,-0.2945 z m -1.622,1.169 c -0.261,0.208 -0.517,0.4215 -0.7675,0.6415 l 6.5945,7.5175 c 0.1305,-0.1145 0.265,-0.2275 0.401,-0.335 z m -1.503,1.318 c -0.1425,0.1375 -0.2825,0.277 -0.421,0.418 -5e-4,5e-4 -5e-4,0.001 -0.001,0.001 -0.003,0.0035 -0.007,0.0065 -0.01,0.01 -10e-4,0.001 -10e-4,0.001 -0.002,0.002 -0.003,0.003 -0.005,0.006 -0.008,0.009 -0.002,0.0015 -0.003,0.0025 -0.004,0.004 -0.002,0.002 -0.005,0.0045 -0.007,0.007 -10e-4,0.002 -0.004,0.0035 -0.005,0.0055 -0.001,0.0015 -0.004,0.0035 -0.005,0.0055 -0.002,0.002 -0.005,0.005 -0.008,0.0075 -10e-4,0.001 -0.002,0.0025 -0.004,0.0035 -0.003,0.003 -0.005,0.006 -0.009,0.009 -5e-4,5e-4 -0.001,0.001 -0.002,0.0015 -0.073,0.0755 -0.1455,0.1515 -0.2175,0.2275 l 7.2805,6.855 c 0.119,-0.1265 0.2425,-0.2515 0.3675,-0.372 l -6.9455,-7.194 z m -1.3705,1.456 c -0.001,0.0015 -0.003,0.003 -0.004,0.0045 -0.002,0.002 -0.004,0.0045 -0.005,0.007 -0.002,0.0015 -0.003,0.0035 -0.005,0.005 -0.002,0.0025 -0.004,0.0045 -0.006,0.007 -10e-4,0.002 -0.003,0.004 -0.005,0.006 -0.002,0.002 -0.004,0.004 -0.005,0.006 -0.002,0.002 -0.003,0.0035 -0.005,0.0055 -0.002,0.002 -0.004,0.0045 -0.006,0.007 -10e-4,0.0015 -0.002,0.003 -0.004,0.0045 -0.002,0.0025 -0.004,0.005 -0.007,0.0075 -5e-4,0.001 -0.002,0.0025 -0.003,0.0035 -0.002,0.003 -0.005,0.0055 -0.007,0.0085 0,5e-4 -10e-4,0.002 -0.002,0.0025 -0.002,0.003 -0.005,0.0065 -0.008,0.0095 l -5e-4,0.001 c -0.188,0.222 -0.3715,0.4485 -0.5505,0.6785 -0.003,0.004 -0.007,0.008 -0.01,0.012 l 7.9005,6.13 c 0.1065,-0.137 0.2175,-0.273 0.33,-0.405 l -7.599,-6.5005 z m -1.2255,1.5795 c -0.0265,0.0375 -0.0525,0.0755 -0.079,0.1135 -5e-4,10e-4 -0.001,0.0015 -0.002,0.0025 -0.002,0.0025 -0.003,0.005 -0.005,0.0075 -10e-4,0.0015 -0.003,0.0045 -0.004,0.006 -0.001,0.0015 -0.002,0.003 -0.003,0.0045 -0.1585,0.2295 -0.3125,0.462 -0.4615,0.698 l 8.45,5.347 c 0.0925,-0.146 0.1895,-0.292 0.2895,-0.4335 l -8.1845,-5.7455 z m -1.069,1.6895 c -0.0765,0.135 -0.152,0.271 -0.2255,0.408 -5e-4,0.001 -5e-4,0.001 -10e-4,0.002 -5e-4,0.0015 -0.002,0.003 -0.002,0.0045 -0.083,0.1545 -0.164,0.31 -0.2435,0.4665 l 8.9245,4.512 c 0.0775,-0.154 0.16,-0.3075 0.2455,-0.4575 l -8.6975,-4.9355 z m -0.902,1.784 c -0.034,0.0755 -0.0675,0.152 -0.1,0.228 l -5e-4,5e-4 c -0.004,0.0095 -0.008,0.019 -0.012,0.0285 v 0 c -0.004,0.0095 -0.008,0.019 -0.012,0.0285 v 0 c -0.09,0.2105 -0.177,0.423 -0.2605,0.6365 l 9.317,3.632 c 0.0625,-0.16 0.1295,-0.3205 0.1995,-0.4775 z m -0.726,1.863 c -0.045,0.134 -0.088,0.267 -0.13,0.402 -5e-4,0.0015 -10e-4,0.003 -10e-4,0.0045 -0.001,0.004 -0.002,0.007 -0.004,0.0105 -5e-4,0.0015 -0.001,0.0035 -0.002,0.005 -0.001,0.0035 -0.002,0.0065 -0.003,0.01 -5e-4,0.002 -0.001,0.004 -0.002,0.006 -10e-4,0.0025 -0.002,0.007 -0.003,0.0095 -5e-4,0.0015 -10e-4,0.003 -10e-4,0.0045 -0.001,0.003 -0.002,0.007 -0.003,0.0105 -5e-4,0.0015 -0.001,0.003 -0.002,0.005 -10e-4,0.003 -0.002,0.0075 -0.003,0.0105 -5e-4,0.0015 -10e-4,0.003 -10e-4,0.004 -0.001,0.0035 -0.003,0.0075 -0.004,0.0105 -5e-4,0.0015 -0.001,0.0035 -0.002,0.005 -0.001,0.003 -0.002,0.007 -0.003,0.0105 -5e-4,0.0015 -0.001,0.003 -0.001,0.005 -0.001,0.003 -0.002,0.007 -0.003,0.0105 -5e-4,0.0015 -0.001,0.003 -0.002,0.0045 -0.001,0.003 -0.002,0.008 -0.004,0.011 0,10e-4 -5e-4,0.0025 -0.001,0.004 -10e-4,0.004 -0.002,0.007 -0.003,0.011 -5e-4,0.0015 -10e-4,0.003 -0.002,0.0045 -0.001,0.003 -0.002,0.0075 -0.003,0.0105 -5e-4,0.0015 -0.001,0.0025 -0.001,0.004 -10e-4,0.0035 -0.003,0.0075 -0.004,0.0115 0,0.001 -5e-4,0.002 -0.001,0.003 -0.001,0.004 -0.002,0.009 -0.004,0.0125 0,5e-4 -5e-4,0.0015 -5e-4,0.002 -0.001,0.004 -0.002,0.009 -0.004,0.0125 0,10e-4 -5e-4,0.002 -5e-4,0.003 -0.001,0.004 -0.002,0.009 -0.004,0.0125 0,5e-4 -5e-4,0.0015 -5e-4,0.002 -0.001,0.004 -0.002,0.0095 -0.004,0.013 0,5e-4 -5e-4,0.0015 -5e-4,0.002 -0.002,0.005 -0.002,0.0085 -0.004,0.0135 0,5e-4 0,5e-4 -5e-4,10e-4 -0.001,0.005 -0.002,0.009 -0.004,0.014 0,5e-4 0,5e-4 0,10e-4 -0.0275,0.0925 -0.054,0.1835 -0.08,0.2765 l 9.624,2.716 c 0.0465,-0.165 0.098,-0.331 0.1525,-0.4935 l -9.4845,-3.1755 z m -0.543,1.924 c -0.061,0.2635 -0.1165,0.529 -0.1675,0.7965 -0.0115,0.061 -0.0225,0.122 -0.034,0.183 l 9.841,1.776 c 0.0305,-0.169 0.0655,-0.34 0.104,-0.5075 z m -0.3555,1.967 c -0.028,0.213 -0.0525,0.4275 -0.074,0.6425 0,10e-4 0,0.002 0,0.003 -5e-4,0.004 -10e-4,0.008 -10e-4,0.012 0,0.0015 -5e-4,0.0035 -5e-4,0.005 0,0.0025 -5e-4,0.006 -5e-4,0.009 0,0.0025 -5e-4,0.0055 -5e-4,0.0085 0,0.0015 -5e-4,0.004 -5e-4,0.0055 0,0.004 -5e-4,0.008 -10e-4,0.0115 v 10e-4 c -0.01,0.0985 -0.0185,0.197 -0.0265,0.296 l 9.966,0.827 c 0.0145,-0.173 0.033,-0.3475 0.0555,-0.5195 z m -0.1655,1.9925 c -0.005,0.1595 -0.01,0.3195 -0.0115,0.4795 0,0.0015 0,0.0025 0,0.004 0,0.005 0,0.01 0,0.0145 0,5e-4 0,0.0015 0,0.002 0,0.0095 0,0.019 0,0.028 0,0.0015 0,0.0035 0,0.0055 0,0.004 0,0.0085 0,0.0125 0,0.0025 0,0.0055 0,0.008 0,0.0055 0,0.0115 0,0.017 0,0.004 0,0.008 0,0.012 0,0.0035 0,0.0065 0,0.01 0,0.0035 0,0.0075 0,0.011 0,0.0035 0,0.006 0,0.0095 0,0.005 0,0.01 0,0.015 0,0.0025 0,0.007 0,0.01 0,0.005 0,0.01 0,0.015 0,0.002 0,0.006 0,0.0085 0,0.005 0,0.0095 0,0.0145 0,0.002 0,0.004 0,0.006 0,0.007 0,0.0135 0,0.0205 0,0.002 0,0.0035 0,0.0055 0,0.0055 0,0.0105 0,0.016 0,0.002 0,0.004 0,0.006 0,0.007 0,0.014 0,0.021 v 0 0 c 0,0.0055 0,0.0105 0,0.016 0,0.003 0,0.0065 0,0.0095 0,0.002 0,0.004 0,0.006 0,0.005 0,0.01 0,0.015 v 0 c 0,0.0675 5e-4,0.135 0.001,0.202 l 9.9995,-0.117 -5e-4,-0.132 c 0,-0.133 0.002,-0.266 0.007,-0.398 l -9.996,-0.353 z m 10.006,1.4105 -9.9825,0.5895 c 0.0165,0.284 0.0395,0.568 0.0675,0.8485 0,10e-4 0,0.002 0,0.0025 0,0.004 5e-4,0.0085 10e-4,0.0125 0,0.0015 0,0.003 5e-4,0.0045 0,0.0035 5e-4,0.0065 0.001,0.01 0,0.0025 5e-4,0.0055 5e-4,0.008 0,0.002 5e-4,0.004 5e-4,0.006 0,0.0035 5e-4,0.0075 0.001,0.011 0,5e-4 0,0.002 0,0.0025 0.003,0.0305 0.007,0.061 0.01,0.091 l 9.943,-1.065 c -0.017,-0.1725 -0.0315,-0.3475 -0.042,-0.521 z m 0.1115,1.037 -9.8805,1.5405 c 0.001,0.006 0.002,0.012 0.003,0.018 0,0.0015 5e-4,0.0025 5e-4,0.004 5e-4,0.0035 0.001,0.008 0.002,0.011 5e-4,0.003 10e-4,0.006 10e-4,0.009 0,0.0015 5e-4,0.0045 0.001,0.006 5e-4,0.004 0.001,0.0085 0.002,0.0125 0,5e-4 0,0.0015 0,0.0025 0.0415,0.2625 0.0885,0.523 0.14,0.7825 0,0.001 0,0.001 5e-4,0.0025 5e-4,0.0035 0.002,0.007 0.002,0.0105 0,0.002 0.001,0.005 0.001,0.007 0,0.0025 5e-4,0.0045 0.001,0.007 5e-4,0.0035 10e-4,0.0075 0.002,0.0105 0,10e-4 5e-4,0.0025 5e-4,0.0035 5e-4,0.0045 0.001,0.0095 0.002,0.014 0,0 0,0 0,5e-4 0.005,0.028 0.0115,0.0555 0.017,0.0835 l 9.795,-2.0145 c -0.033,-0.169 -0.064,-0.3405 -0.0905,-0.5105 z m 0.2085,1.0135 -9.6865,2.485 c 0.083,0.324 0.174,0.645 0.2715,0.9625 l 9.555,-2.9505 c -0.0505,-0.164 -0.098,-0.331 -0.14,-0.497 z m 0.304,0.9865 -9.4005,3.409 c 0.114,0.314 0.235,0.6245 0.3635,0.9315 l 9.2255,-3.859 c -0.0665,-0.1585 -0.1295,-0.3205 -0.1885,-0.4815 z m 0.3995,0.9535 -9.0285,4.2995 c 0.0175,0.0365 0.0345,0.073 0.052,0.109 5e-4,0.001 0.002,0.0035 0.002,0.0045 10e-4,0.002 0.002,0.0035 0.002,0.0055 0.001,0.003 0.003,0.0065 0.004,0.0095 0,0 5e-4,5e-4 5e-4,0.001 0.0895,0.185 0.1815,0.367 0.2765,0.549 v 0 c 0.002,0.004 0.005,0.0085 0.007,0.012 5e-4,10e-4 0.001,0.002 0.002,0.0035 10e-4,0.0025 0.003,0.006 0.005,0.009 10e-4,0.002 0.002,0.0045 0.004,0.0065 5e-4,0.0015 0.002,0.0045 0.003,0.006 0.001,0.003 0.003,0.006 0.004,0.009 5e-4,0.002 0.001,0.002 0.002,0.004 0.0285,0.0545 0.0575,0.109 0.0865,0.1635 l 8.8115,-4.729 c -0.081,-0.1515 -0.1595,-0.307 -0.2335,-0.4625 z m 0.4905,0.9145 -8.574,5.147 c 0.0485,0.0805 0.097,0.16 0.1465,0.24 v 5e-4 c 0.002,0.0035 0.005,0.007 0.007,0.0105 5e-4,10e-4 10e-4,0.0025 0.002,0.0035 0.001,0.002 0.002,0.004 0.004,0.006 10e-4,0.003 0.004,0.006 0.005,0.009 0,0 5e-4,5e-4 5e-4,0.001 0.12,0.1935 0.2435,0.385 0.3695,0.574 l 8.317,-5.552 c -0.095,-0.144 -0.189,-0.292 -0.2775,-0.4395 z m 0.578,0.866 -8.042,5.9435 c 0.037,0.05 0.0745,0.1 0.112,0.15 v 5e-4 c 0.003,0.004 0.006,0.008 0.009,0.0115 l 10e-4,0.001 c 0.003,0.0035 0.005,0.0075 0.008,0.0105 5e-4,10e-4 10e-4,0.0015 0.002,0.0025 0.002,0.0035 0.005,0.007 0.007,0.01 5e-4,0.001 10e-4,0.0015 0.002,0.0025 0.002,0.003 0.005,0.0065 0.007,0.0095 5e-4,0.001 0.002,0.0025 0.003,0.004 0.002,0.0025 0.004,0.0055 0.006,0.008 10e-4,0.0015 0.002,0.003 0.004,0.0045 0.002,0.0025 0.004,0.005 0.005,0.0075 10e-4,0.0015 0.003,0.004 0.004,0.0055 0.001,0.002 0.004,0.0045 0.005,0.007 0.001,0.0015 0.003,0.004 0.004,0.0055 0.001,0.0025 0.003,0.0045 0.005,0.007 0.002,0.0025 0.003,0.004 0.005,0.0065 0.002,0.0015 0.003,0.0035 0.005,0.0055 0.002,0.0025 0.003,0.0045 0.005,0.007 0.001,0.002 0.002,0.0035 0.004,0.0055 0.002,0.0025 0.004,0.0055 0.006,0.008 0.001,0.0015 0.002,0.003 0.003,0.0045 0.002,0.0025 0.004,0.006 0.006,0.0085 0.001,0.0015 0.002,0.0025 0.003,0.004 0.002,0.003 0.005,0.0065 0.008,0.0095 5e-4,5e-4 0.001,0.0015 0.002,0.0025 0.002,0.003 0.005,0.007 0.008,0.01 5e-4,5e-4 0.001,0.0015 0.001,0.0025 0.003,0.0035 0.005,0.007 0.008,0.0105 0,5e-4 5e-4,5e-4 5e-4,10e-4 0.003,0.004 0.006,0.0075 0.009,0.0115 0,0 0,5e-4 5e-4,5e-4 0.1155,0.1495 0.233,0.298 0.3525,0.4445 l 7.749,-6.321 c -0.1085,-0.1335 -0.2165,-0.272 -0.3195,-0.4115 z m 0.6605,0.8095 -7.4385,6.683 c 0.223,0.248 0.4515,0.4905 0.686,0.728 l 7.1115,-7.0305 c -0.1225,-0.1235 -0.243,-0.2515 -0.359,-0.3805 z m 0.735,0.7435 -6.768,7.3615 c 0.125,0.115 0.2525,0.2295 0.3805,0.3415 5e-4,5e-4 0.001,5e-4 0.001,0.001 0.003,0.0025 0.005,0.0045 0.008,0.007 0.002,10e-4 0.003,0.0025 0.005,0.004 10e-4,0.001 0.004,0.003 0.005,0.0045 0.002,0.002 0.005,0.004 0.008,0.006 0.001,0.001 0.001,0.001 0.002,0.002 0.003,0.003 0.007,0.0055 0.01,0.0085 l 5e-4,5e-4 c 0.11,0.0955 0.2205,0.19 0.3325,0.2835 l 6.4095,-7.6755 c -0.1335,-0.111 -0.266,-0.2265 -0.394,-0.3445 z m 0.802,0.67 -6.0355,7.973 c 0.1535,0.116 0.3085,0.2305 0.4655,0.3425 0.1145,0.082 0.23,0.1625 0.346,0.242 l 5.6475,-8.2525 c -0.1425,-0.098 -0.285,-0.2005 -0.4235,-0.305 z m 0.8605,0.5885 -5.246,8.5135 c 0.017,0.0105 0.0345,0.021 0.052,0.0315 0.001,5e-4 0.001,5e-4 0.002,0.0015 0.003,0.002 0.007,0.004 0.01,0.0055 10e-4,10e-4 0.004,0.002 0.005,0.0035 0.002,10e-4 0.004,0.0025 0.006,0.0035 0.002,0.0015 0.006,0.0035 0.009,0.0055 0.001,5e-4 0.002,10e-4 0.003,0.0015 0.2495,0.152 0.503,0.2995 0.759,0.441 5e-4,0 0.001,5e-4 0.002,5e-4 0.004,0.002 0.007,0.0035 0.01,0.0055 0.002,0.001 0.004,0.002 0.006,0.003 5e-4,0 0.001,5e-4 0.001,0.001 l 4.8315,-8.7555 c -0.1515,-0.083 -0.3025,-0.171 -0.4495,-0.2615 z m 0.909,0.5015 -4.4045,8.978 c 0.056,0.0275 0.112,0.0545 0.168,0.0815 l 10e-4,5e-4 c 0.004,0.002 0.008,0.004 0.012,0.006 0.001,5e-4 0.002,5e-4 0.003,10e-4 0.003,0.0015 0.007,0.0035 0.0105,0.005 10e-4,5e-4 0.004,0.0015 0.005,0.002 0.002,0.001 0.005,0.0025 0.008,0.004 0.003,10e-4 0.005,0.002 0.007,0.0035 0.002,0.001 0.004,0.002 0.007,0.003 0.002,0.001 0.007,0.003 0.009,0.004 10e-4,10e-4 0.003,0.0015 0.005,0.0025 0.003,0.0015 0.007,0.003 0.01,0.0045 0.002,5e-4 0.003,0.0015 0.005,0.002 0.003,0.0015 0.007,0.0035 0.011,0.0055 5e-4,0 0.001,5e-4 0.002,10e-4 0.005,0.002 0.008,0.004 0.013,0.006 0,0 5e-4,0 5e-4,5e-4 0.209,0.0985 0.4195,0.194 0.6325,0.286 l 3.9665,-9.1795 c -0.1575,-0.068 -0.316,-0.141 -0.47,-0.217 z m 0.949,0.4105 -3.519,9.3605 c 0.312,0.117 0.6255,0.2265 0.9445,0.329 l 3.0625,-9.5195 c -0.163,-0.0525 -0.327,-0.1095 -0.488,-0.17 z m 0.9835,0.3165 -2.5985,9.6565 c 0.04,0.0105 0.08,0.021 0.12,0.0315 h 5e-4 c 0.004,10e-4 0.009,0.0025 0.014,0.0035 5e-4,0 0.001,0 0.002,5e-4 0.004,0.001 0.008,0.002 0.012,0.003 0.002,5e-4 0.003,0.001 0.005,0.001 0.003,5e-4 0.007,0.0015 0.0105,0.0025 0.002,5e-4 0.004,10e-4 0.007,0.0015 0.002,5e-4 0.005,10e-4 0.007,0.002 0.003,5e-4 0.006,0.0015 0.01,0.0025 0.002,5e-4 0.004,10e-4 0.005,0.0015 0.004,10e-4 0.008,0.002 0.0115,0.003 0.001,0 0.002,5e-4 0.003,5e-4 0.005,10e-4 0.009,0.002 0.013,0.0035 5e-4,0 0.001,0 0.002,5e-4 0.2485,0.064 0.4975,0.123 0.7495,0.178 l 2.1295,-9.771 c -0.168,-0.035 -0.337,-0.0765 -0.5025,-0.1205 z m 1.0105,0.22 -1.656,9.862 c 0.2505,0.042 0.503,0.08 0.757,0.113 0.0775,0.0105 0.1555,0.02 0.233,0.029 l 1.181,-9.93 c -0.172,-0.021 -0.345,-0.0455 -0.515,-0.074 z m 1.035,0.123 -0.7055,9.975 c 0.0675,0.0045 0.135,0.009 0.2025,0.013 0.002,0 0.005,5e-4 0.007,5e-4 0.002,0 0.005,0 0.008,5e-4 0.004,0 0.008,5e-4 0.0115,5e-4 10e-4,0 0.002,0 0.004,0 0.005,0 0.008,5e-4 0.013,5e-4 5e-4,0 0.001,0 0.002,0 0.1595,0.0095 0.3195,0.017 0.48,0.0225 0.002,0 0.002,0 0.004,0 0.003,0 0.006,0 0.009,5e-4 0.003,0 0.005,0 0.008,0 0.002,0 0.004,0 0.007,0 0.004,0 0.008,0 0.011,0 0.001,0 0.003,0 0.004,0 0.005,0 0.009,0 0.014,5e-4 5e-4,0 0.001,0 0.001,0 0.0705,0.0025 0.141,0.0045 0.2115,0.006 l 0.232,-9.9975 c -0.175,-0.0015 -0.352,-0.0095 -0.5255,-0.022 z m 1.581,-5e-4 c -0.174,0.012 -0.351,0.021 -0.526,0.025 l 0.2385,9.997 c 0.094,-0.002 0.188,-0.005 0.282,-0.0085 0.01,0 0.019,-5e-4 0.028,-10e-4 0.001,0 0.002,0 0.004,0 0.004,0 0.009,0 0.013,-5e-4 0.002,0 0.001,0 0.002,0 0.005,0 0.01,-5e-4 0.015,-5e-4 h 5e-4 c 0.198,-0.008 0.3955,-0.0185 0.592,-0.032 5e-4,0 0,0 5e-4,0 0.0105,-5e-4 0.0205,-10e-4 0.0305,-0.002 5e-4,0 0,0 5e-4,0 0.005,-5e-4 0.01,-5e-4 0.015,-10e-4 h 0.001 c 0.004,0 0.01,-5e-4 0.0145,-10e-4 v 0 z m 1.0355,-0.1235 c -0.17,0.0285 -0.3435,0.0535 -0.515,0.074 l 1.186,9.9295 c 0.308,-0.0365 0.6135,-0.08 0.9165,-0.13 0,0 0,0 5e-4,0 0.005,-10e-4 0.01,-0.0015 0.0145,-0.0025 0.001,0 0.002,-5e-4 0.004,-5e-4 0.004,-5e-4 0.008,-10e-4 0.012,-0.002 0.001,0 0.003,-5e-4 0.005,-5e-4 0.004,-5e-4 0.007,-10e-4 0.011,-0.002 10e-4,0 0.004,-5e-4 0.005,-5e-4 0.004,-5e-4 0.007,-0.001 0.01,-0.0015 0.002,-5e-4 0.004,-5e-4 0.006,-0.001 0.001,0 0.004,-5e-4 0.005,-10e-4 l -1.66,-9.862 z m 1.0115,-0.221 c -0.166,0.0445 -0.3345,0.086 -0.5025,0.1225 l 2.134,9.77 c 0.037,-0.008 0.073,-0.016 0.11,-0.0245 5e-4,0 0.001,0 0.001,0 0.005,-0.001 0.009,-0.002 0.0135,-0.003 0.001,0 0.003,-5e-4 0.004,-0.001 0.004,-5e-4 0.007,-0.0015 0.0105,-0.002 0.002,-5e-4 0.005,-0.001 0.007,-0.002 0.002,-5e-4 0.005,-10e-4 0.007,-0.0015 0.004,-10e-4 0.007,-0.0015 0.01,-0.0025 0.001,0 0.003,-5e-4 0.004,-0.001 0.004,-10e-4 0.008,-0.0015 0.0115,-0.0025 0.001,0 0.002,-5e-4 0.004,-5e-4 0.005,-10e-4 0.009,-0.002 0.013,-0.003 5e-4,0 0.001,0 0.001,-5e-4 0.005,-0.001 0.01,-0.002 0.014,-0.003 5e-4,0 0,0 0.001,0 0.1265,-0.029 0.253,-0.0595 0.379,-0.091 h 5e-4 c 0.005,-0.001 0.009,-0.002 0.013,-0.003 5e-4,0 0.001,-5e-4 0.002,-5e-4 0.004,-10e-4 0.008,-0.002 0.0125,-0.003 0.001,-5e-4 0.002,-5e-4 0.003,-5e-4 0.004,-10e-4 0.008,-0.002 0.012,-0.003 0.001,0 0.002,-5e-4 0.004,-5e-4 0.004,-10e-4 0.008,-0.002 0.0115,-0.003 0.002,-5e-4 0.002,-5e-4 0.004,-10e-4 0.004,-0.001 0.008,-0.002 0.0115,-0.003 5e-4,0 0.003,-5e-4 0.004,-0.001 0.004,-10e-4 0.008,-0.002 0.012,-0.003 5e-4,0 0.002,-5e-4 0.003,-10e-4 0.004,-10e-4 0.008,-0.002 0.012,-0.003 0.001,0 0.002,-5e-4 0.003,-5e-4 0.004,-10e-4 0.008,-0.002 0.012,-0.003 0.001,-5e-4 0.001,-5e-4 0.003,-5e-4 0.004,-0.001 0.008,-0.002 0.0125,-0.003 5e-4,0 0.002,-5e-4 0.002,-5e-4 0.004,-10e-4 0.009,-0.002 0.013,-0.0035 5e-4,0 0.001,0 0.002,-5e-4 0.004,-0.001 0.009,-0.002 0.013,-0.0035 5e-4,0 0.001,0 0.002,0 0.005,-10e-4 0.01,-0.0025 0.014,-0.0035 h 5e-4 c 0.065,-0.017 0.1305,-0.034 0.1955,-0.0515 l -2.6005,-9.659 z m 0.9835,-0.317 c -0.1605,0.0605 -0.3245,0.1175 -0.488,0.17 l 3.066,9.5185 c 0.154,-0.0495 0.3075,-0.101 0.4595,-0.154 5e-4,0 0,0 5e-4,0 0.004,-0.0015 0.008,-0.003 0.013,-0.0045 5e-4,0 0.002,-5e-4 0.003,-0.001 0.003,-10e-4 0.007,-0.0025 0.011,-0.004 0.001,-5e-4 0.003,-10e-4 0.004,-0.0015 0.004,-10e-4 0.006,-0.002 0.01,-0.0035 0.002,-5e-4 0.005,-0.0015 0.007,-0.002 0.002,-0.001 0.005,-0.0015 0.007,-0.0025 0.002,-10e-4 0.006,-0.002 0.008,-0.003 0.002,-5e-4 0.004,-10e-4 0.006,-0.002 0.004,-0.0015 0.007,-0.0025 0.0105,-0.004 0.001,0 0.002,-5e-4 0.004,-10e-4 0.004,-0.0015 0.009,-0.003 0.0125,-0.0045 5e-4,0 0.001,0 0.001,-5e-4 0.13,-0.046 0.2585,-0.093 0.3865,-0.141 z m 0.95,-0.4105 c -0.1545,0.0755 -0.3125,0.1485 -0.4705,0.217 l 3.9695,9.178 c 0.1755,-0.0755 0.3495,-0.154 0.522,-0.2345 5e-4,0 0.001,-5e-4 0.002,-5e-4 0.004,-0.002 0.007,-0.0035 0.011,-0.0055 0.001,-5e-4 0.002,-10e-4 0.004,-0.0015 0.003,-0.0015 0.007,-0.003 0.01,-0.0045 0.001,-5e-4 0.003,-0.0015 0.005,-0.002 0.003,-0.0015 0.006,-0.0025 0.009,-0.004 0.002,-10e-4 0.004,-0.0015 0.006,-0.0025 0.002,-0.001 0.005,-0.0025 0.008,-0.0035 0.002,-10e-4 0.005,-0.002 0.007,-0.003 0.002,-10e-4 0.004,-0.0015 0.005,-0.0025 0.003,-0.0015 0.006,-0.003 0.01,-0.0045 5e-4,0 10e-4,-0.001 0.002,-0.001 0.103,-0.0485 0.2055,-0.098 0.3075,-0.148 l -4.406,-8.9775 z m 0.909,-0.502 c -0.147,0.0905 -0.298,0.1785 -0.449,0.262 l 4.834,8.754 c 0.03,-0.0165 0.0605,-0.0335 0.09,-0.05 5e-4,-5e-4 0.002,-5e-4 0.002,-10e-4 0.004,-0.002 0.007,-0.004 0.011,-0.006 0.001,-5e-4 0.002,-0.001 0.002,-0.0015 0.004,-0.002 0.007,-0.0035 0.01,-0.0055 0.001,-10e-4 0.003,-0.0015 0.004,-0.0025 0.003,-0.0015 0.006,-0.003 0.008,-0.0045 0.002,-0.0015 0.005,-0.0025 0.007,-0.0035 0.001,-10e-4 0.004,-0.002 0.005,-0.003 0.003,-0.0015 0.006,-0.0035 0.009,-0.005 0.001,-5e-4 0.002,-0.001 0.003,-0.002 0.003,-0.002 0.007,-0.0035 0.01,-0.0055 5e-4,-5e-4 0.002,-0.0015 0.003,-0.002 0.004,-0.002 0.008,-0.004 0.0115,-0.0065 v 0 c 0.2315,-0.1305 0.46,-0.2655 0.686,-0.405 l -5.248,-8.5125 z m 0.86,-0.5895 c -0.138,0.1045 -0.2805,0.2075 -0.4235,0.305 l 5.65,8.2505 c 0.1265,-0.0865 0.252,-0.1745 0.3765,-0.264 0,0 0,0 5e-4,-5e-4 0.004,-0.003 0.008,-0.0055 0.012,-0.0085 5e-4,0 5e-4,-5e-4 0.001,-5e-4 0.004,-0.0025 0.007,-0.005 0.011,-0.008 5e-4,-5e-4 0.001,-10e-4 0.002,-0.002 0.003,-0.002 0.007,-0.005 0.01,-0.0075 0.001,-5e-4 0.002,-10e-4 0.003,-0.002 0.003,-0.0025 0.006,-0.004 0.009,-0.0065 0.002,-10e-4 0.003,-0.002 0.005,-0.0035 0.002,-0.0015 0.006,-0.004 0.007,-0.0055 0.002,-0.0015 0.004,-0.0025 0.006,-0.004 0.002,-0.0015 0.005,-0.003 0.006,-0.0045 0.002,-0.0015 0.005,-0.003 0.007,-0.005 0.002,-0.0015 0.004,-0.0025 0.006,-0.004 0.002,-0.002 0.005,-0.0035 0.007,-0.0055 0.001,-5e-4 0.003,-0.002 0.005,-0.003 0.003,-0.002 0.006,-0.0045 0.009,-0.0065 0.001,-5e-4 0.002,-0.0015 0.004,-0.0025 0.004,-0.0025 0.007,-0.005 0.0105,-0.0075 5e-4,0 0.001,-5e-4 0.001,-0.001 0.004,-0.0025 0.007,-0.0055 0.011,-0.0085 5e-4,0 0.001,-5e-4 0.001,-10e-4 0.101,-0.0735 0.2005,-0.148 0.3,-0.223 l -6.0375,-7.971 z m 0.8015,-0.6695 c -0.1275,0.1175 -0.26,0.2335 -0.393,0.3445 l 6.4115,7.674 c 0.002,-0.0015 0.005,-0.0035 0.006,-0.0055 5e-4,-5e-4 0.002,-10e-4 0.002,-0.0015 0.003,-0.0025 0.007,-0.0055 0.01,-0.008 0.001,-5e-4 0.002,-0.0015 0.003,-0.0025 0.003,-0.0025 0.006,-0.005 0.009,-0.0075 0.001,-10e-4 0.002,-0.002 0.004,-0.003 0.002,-0.002 0.005,-0.0045 0.008,-0.007 0.001,-10e-4 0.002,-0.002 0.004,-0.0035 0.002,-0.002 0.005,-0.0045 0.008,-0.0065 0.001,-10e-4 0.002,-0.0025 0.004,-0.0035 0.002,-0.002 0.005,-0.004 0.007,-0.0065 0.001,-0.001 0.003,-0.0025 0.005,-0.004 0.002,-0.002 0.005,-0.0035 0.007,-0.006 0.001,-0.0015 0.004,-0.003 0.006,-0.0045 0.002,-0.0015 0.004,-0.003 0.006,-0.005 0.002,-0.0015 0.004,-0.0035 0.006,-0.0055 0.001,-10e-4 0.004,-0.0035 0.006,-0.0045 0.002,-0.002 0.004,-0.0035 0.006,-0.0055 0.001,-10e-4 0.004,-0.003 0.005,-0.004 0.002,-0.002 0.005,-0.004 0.007,-0.006 0.001,-0.0015 0.003,-0.003 0.005,-0.004 0.002,-0.002 0.005,-0.004 0.007,-0.0065 0.001,-5e-4 0.003,-0.0025 0.004,-0.003 0.003,-0.0025 0.006,-0.005 0.008,-0.007 0.001,-0.001 0.002,-0.002 0.003,-0.003 0.003,-0.0025 0.006,-0.005 0.009,-0.0075 0.001,-5e-4 0.001,-0.001 0.002,-0.002 0.003,-0.0025 0.006,-0.0055 0.01,-0.0085 0.001,-5e-4 0.001,-0.001 0.002,-0.002 0.004,-0.0025 0.006,-0.0055 0.01,-0.0085 l 0.001,-5e-4 c 0.004,-0.003 0.007,-0.0065 0.011,-0.0095 l 0.001,-0.001 c 0.166,-0.142 0.3295,-0.2865 0.4905,-0.4335 0.001,-10e-4 0.001,-10e-4 0.002,-0.002 0.003,-0.0025 0.006,-0.0055 0.01,-0.0085 0.001,-5e-4 0.002,-0.002 0.003,-0.003 0.002,-0.002 0.005,-0.0045 0.008,-0.007 0.001,-10e-4 0.004,-0.0035 0.006,-0.005 0.001,-0.0015 0.004,-0.0035 0.005,-0.005 0.002,-0.002 0.005,-0.0045 0.007,-0.0065 0.001,-10e-4 0.002,-0.002 0.004,-0.0035 0.003,-0.0025 0.006,-0.006 0.01,-0.0085 5e-4,-5e-4 10e-4,-10e-4 10e-4,-10e-4 0.004,-0.0035 0.007,-0.0065 0.011,-0.0105 0,0 0,0 0,0 10e-4,-10e-4 0.002,-0.002 0.004,-0.0035 l -6.771,-7.358 z m 0.735,-0.744 c -0.116,0.129 -0.2365,0.257 -0.3585,0.3805 l 7.1135,7.0285 c 0.001,-10e-4 0.002,-0.0015 0.002,-0.0025 0.002,-0.0025 0.006,-0.0055 0.008,-0.008 0,0 10e-4,-10e-4 10e-4,-0.0015 0.1565,-0.159 0.311,-0.3205 0.463,-0.4845 0,-5e-4 5e-4,-10e-4 0.001,-0.0015 0.003,-0.003 0.006,-0.0065 0.009,-0.0095 0.001,-10e-4 0.002,-0.002 0.003,-0.003 0.002,-0.0025 0.005,-0.005 0.008,-0.008 0.001,-0.002 0.003,-0.0035 0.005,-0.0055 0.001,-0.0015 0.004,-0.0035 0.005,-0.0055 0.002,-0.002 0.005,-0.005 0.007,-0.0075 0.001,-10e-4 0.002,-0.0025 0.003,-0.0035 0.003,-0.0035 0.006,-0.007 0.01,-0.0105 0,0 5e-4,-5e-4 5e-4,-5e-4 0.0535,-0.0585 0.1075,-0.1175 0.1605,-0.177 z m 0.6605,-0.8095 c -0.103,0.139 -0.2105,0.278 -0.3205,0.4125 l 7.7505,6.3185 c 0.001,-0.001 0.002,-0.002 0.003,-0.003 0.002,-0.0025 0.004,-0.0055 0.006,-0.008 0.001,-0.0015 0.002,-0.0035 0.004,-0.005 0.002,-0.0025 0.004,-0.005 0.006,-0.0075 0.002,-0.002 0.003,-0.0035 0.005,-0.0055 0.001,-0.002 0.004,-0.0045 0.006,-0.0065 0.001,-0.002 0.004,-0.0045 0.005,-0.0065 10e-4,-0.002 0.003,-0.0035 0.004,-0.0055 0.002,-0.0025 0.005,-0.0055 0.007,-0.008 0.001,-10e-4 0.002,-0.0025 0.003,-0.004 0.002,-0.003 0.005,-0.006 0.008,-0.009 5e-4,-0.001 0.001,-0.002 0.002,-0.0025 0.003,-0.0035 0.006,-0.007 0.008,-0.0105 5e-4,-5e-4 5e-4,-0.001 0.001,-0.0015 0.003,-0.004 0.006,-0.007 0.009,-0.011 0,0 5e-4,-5e-4 5e-4,-5e-4 0.1045,-0.13 0.2075,-0.2605 0.309,-0.3935 v 0 c 0.002,-0.0035 0.006,-0.008 0.009,-0.0115 0,-5e-4 5e-4,-5e-4 5e-4,-10e-4 0.002,-0.003 0.005,-0.0065 0.007,-0.0095 5e-4,-0.001 0.002,-0.002 0.002,-0.003 0.002,-0.0025 0.004,-0.005 0.006,-0.008 0.001,-0.0015 0.003,-0.0035 0.004,-0.005 0.001,-0.0015 0.003,-0.004 0.004,-0.0055 0.001,-0.0025 0.004,-0.005 0.005,-0.0075 5e-4,-10e-4 0.002,-0.0025 0.002,-0.0035 0.002,-0.003 0.005,-0.006 0.007,-0.0095 5e-4,-5e-4 5e-4,-5e-4 0.001,-0.001 0.0595,-0.0785 0.119,-0.1575 0.1775,-0.237 l -8.042,-5.941 z m 0.578,-0.8665 c -0.089,0.148 -0.1825,0.296 -0.2785,0.4395 l 8.319,5.55 c 0.023,-0.035 0.0465,-0.07 0.0695,-0.105 0.002,-0.003 0.005,-0.0065 0.007,-0.01 0,-5e-4 0.001,-0.002 0.001,-0.0025 0.154,-0.2345 0.3035,-0.4725 0.4485,-0.7135 l 5e-4,-0.001 c 0.002,-0.0035 0.005,-0.0075 0.007,-0.011 5e-4,-5e-4 0.001,-0.0015 0.001,-0.002 l -8.5745,-5.1445 z m 0.49,-0.914 c -0.0735,0.1555 -0.1525,0.311 -0.234,0.4625 l 8.8125,4.7265 c 0.0455,-0.085 0.091,-0.1705 0.1355,-0.2565 0.0715,-0.137 0.141,-0.2755 0.209,-0.4145 0,0 0,0 0,-5e-4 0.002,-0.004 0.004,-0.0085 0.007,-0.0125 5e-4,-0.0015 0.001,-0.003 0.002,-0.0045 0.002,-0.003 0.003,-0.006 0.005,-0.009 0.001,-0.0025 0.002,-0.0045 0.004,-0.007 5e-4,-0.0015 0.002,-0.004 0.003,-0.006 0.002,-0.0035 0.004,-0.007 0.005,-0.0105 5e-4,-10e-4 5e-4,-0.002 0.001,-0.003 0.027,-0.056 0.054,-0.112 0.081,-0.1685 l -9.03,-4.2965 z m 0.3985,-0.954 c -0.0585,0.161 -0.1215,0.323 -0.1875,0.4815 l 9.227,3.856 c 0.048,-0.115 0.095,-0.23 0.141,-0.346 0,-5e-4 0.001,-0.0025 0.001,-0.003 0.001,-0.0035 0.003,-0.0075 0.005,-0.011 5e-4,-0.002 0.001,-0.003 0.002,-0.005 10e-4,-0.003 0.002,-0.006 0.004,-0.0095 0.001,-0.0025 0.002,-0.005 0.003,-0.0075 0.001,-0.002 0.001,-0.0045 0.002,-0.007 0.001,-0.0045 0.003,-0.0085 0.005,-0.0125 0,0 0,-5e-4 5e-4,-0.001 0.069,-0.1755 0.1355,-0.3515 0.2,-0.5295 l -9.4025,-3.4055 z m 0.3045,-0.9865 c -0.0425,0.166 -0.0895,0.3335 -0.14,0.497 l 9.556,2.9475 c 0.021,-0.069 0.042,-0.138 0.0625,-0.208 l 5e-4,-0.0015 c 0.001,-0.004 0.002,-0.0085 0.004,-0.0125 0,-5e-4 5e-4,-0.002 5e-4,-0.0025 0.001,-0.004 0.002,-0.0075 0.003,-0.0115 5e-4,-10e-4 0.001,-0.003 0.001,-0.004 0.001,-0.0035 0.002,-0.0075 0.004,-0.011 0,-0.001 5e-4,-0.002 0.001,-0.0035 0.001,-0.004 0.002,-0.008 0.003,-0.012 5e-4,-10e-4 5e-4,-0.002 0.001,-0.003 0.001,-0.004 0.002,-0.0085 0.004,-0.012 0,-5e-4 5e-4,-0.002 5e-4,-0.0025 0.001,-0.0045 0.002,-0.0085 0.004,-0.0125 0,-5e-4 5e-4,-0.002 5e-4,-0.0025 0.001,-0.0045 0.002,-0.009 0.004,-0.013 0,-5e-4 0,-10e-4 5e-4,-0.0015 0.001,-0.0045 0.002,-0.0095 0.004,-0.014 0,-5e-4 0,0 0,-10e-4 0.001,-0.0045 0.002,-0.0095 0.004,-0.014 v -5e-4 c 0.001,-0.005 0.002,-0.0095 0.004,-0.0145 v -10e-4 c 0.0575,-0.1995 0.1125,-0.401 0.1645,-0.603 l -9.6855,-2.483 z m 0.208,-1.0135 c -0.0265,0.17 -0.0575,0.3415 -0.092,0.51 l 9.7955,2.011 c 0.0585,-0.285 0.111,-0.572 0.158,-0.8605 0.006,-0.0415 0.013,-0.0825 0.0195,-0.1235 z m 0.1105,-1.037 c -0.0105,0.1735 -0.0245,0.349 -0.043,0.521 l 9.9435,1.0615 c 0.0125,-0.1175 0.024,-0.234 0.0345,-0.352 0,-5e-4 0,-5e-4 0,-0.001 5e-4,-0.005 5e-4,-0.0085 0.001,-0.013 0,-10e-4 0,-0.0025 0,-0.004 5e-4,-0.004 5e-4,-0.0065 0.001,-0.0105 0,-0.002 0,-0.004 5e-4,-0.0055 0,-0.003 5e-4,-0.004 5e-4,-0.0065 0.0165,-0.19 0.0305,-0.3805 0.042,-0.572 5e-4,-0.0105 10e-4,-0.021 10e-4,-0.0315 l -9.9815,-0.5865 z m 10.006,-1.4135 -9.9935,0.357 c 0.004,0.1335 0.007,0.2675 0.007,0.402 l -5e-4,0.128 9.9995,0.1135 c 5e-4,-0.065 10e-4,-0.1305 10e-4,-0.1955 0,-5e-4 0,-0.0015 0,-0.002 0,-0.004 0,-0.0085 0,-0.0125 0,-0.0025 0,-0.004 0,-0.007 0,-0.003 0,-0.0055 0,-0.0085 0,-0.0055 0,-0.0105 0,-0.016 v 0 0 c 0,-0.007 0,-0.014 0,-0.021 0,-0.002 0,-0.004 0,-0.006 0,-0.0055 0,-0.011 0,-0.0165 0,-0.0015 0,-0.004 0,-0.0055 0,-0.007 0,-0.0135 0,-0.0205 0,-0.002 0,-0.0045 0,-0.007 0,-0.0045 0,-0.0095 0,-0.014 0,-0.0025 0,-0.0055 0,-0.0085 0,-0.0055 0,-0.011 0,-0.017 0,-0.0025 0,-0.0065 0,-0.0095 0,-0.0045 0,-0.009 0,-0.0135 0,-0.0025 0,-0.007 0,-0.01 0,-0.0035 0,-0.007 0,-0.0105 0,-0.007 0,-0.013 0,-0.02 0,-0.0025 0,-0.005 0,-0.0075 0,-0.0045 0,-0.0085 0,-0.013 0,-0.002 0,-0.0045 0,-0.007 0,-0.0145 0,-0.0305 -5e-4,-0.045 0,-0.001 0,-0.002 0,-0.003 0,-0.0055 0,-0.01 0,-0.0155 0,-5e-4 0,-10e-4 0,-0.002 -0.001,-0.0725 -0.002,-0.1445 -0.004,-0.2165 0,0 0,-5e-4 0,-5e-4 0,-0.0155 -5e-4,-0.0305 -0.001,-0.046 0,-0.002 0,-0.004 0,-0.006 0,-0.004 0,-0.008 0,-0.012 0,-0.003 0,-0.006 0,-0.009 0,-0.004 0,-0.009 -5e-4,-0.013 0,-0.0055 0,-0.011 -5e-4,-0.017 0,-0.002 0,-0.0045 0,-0.0065 0,-0.006 -5e-4,-0.0115 -5e-4,-0.0175 0,-5e-4 0,-0.0025 0,-0.003 -0.004,-0.0455 -0.006,-0.0925 -0.007,-0.1395 z m -0.1665,-1.9925 -9.9145,1.3055 c 0.0225,0.1715 0.0415,0.346 0.056,0.5195 l 9.9655,-0.831 c -0.007,-0.078 -0.0135,-0.156 -0.021,-0.234 0,-5e-4 0,0 0,0 -5e-4,-0.005 -0.001,-0.0095 -0.001,-0.014 0,-0.0015 0,-0.0025 0,-0.004 -5e-4,-0.0035 -5e-4,-0.0075 -10e-4,-0.011 0,-0.002 0,-0.004 -5e-4,-0.0065 0,-0.003 -5e-4,-0.006 -0.001,-0.009 0,-0.0035 -5e-4,-0.007 -0.001,-0.0105 0,-0.0015 0,-0.0035 -5e-4,-0.005 -5e-4,-0.0055 -0.001,-0.01 -0.002,-0.015 0,0 0,0 0,0 -0.023,-0.23 -0.049,-0.4575 -0.079,-0.685 z m -0.356,-1.967 -9.743,2.252 c 0.039,0.1675 0.074,0.338 0.1045,0.5075 l 9.8405,-1.78 c -0.029,-0.159 -0.0595,-0.3175 -0.092,-0.475 v -0.002 c -5e-4,-0.0035 -0.001,-0.0075 -0.002,-0.011 0,-0.002 -5e-4,-0.003 -0.001,-0.005 -5e-4,-0.003 -10e-4,-0.0065 -0.002,-0.0095 -5e-4,-0.0025 -5e-4,-0.004 -0.001,-0.0065 -5e-4,-0.0025 -0.001,-0.005 -0.001,-0.008 -5e-4,-0.003 -0.001,-0.0055 -0.001,-0.008 -5e-4,-0.0025 -0.001,-0.005 -0.002,-0.0075 -5e-4,-0.0035 -0.001,-0.0055 -0.002,-0.009 0,-0.002 -5e-4,-0.004 -0.001,-0.006 -5e-4,-0.003 -0.001,-0.007 -0.002,-0.0105 -5e-4,-0.0015 -5e-4,-0.0035 -10e-4,-0.005 -5e-4,-0.004 -0.001,-0.0075 -0.002,-0.0115 -5e-4,-10e-4 -5e-4,-0.0025 -0.001,-0.0035 -5e-4,-0.004 -0.001,-0.008 -0.002,-0.012 0,-0.0015 -5e-4,-0.0025 -5e-4,-0.004 -0.001,-0.004 -0.002,-0.009 -0.002,-0.0125 0,-5e-4 -5e-4,-0.0015 -5e-4,-0.002 -0.001,-0.0045 -0.002,-0.009 -0.003,-0.0135 0,-5e-4 -5e-4,-0.0015 -5e-4,-0.002 -0.001,-0.0045 -0.002,-0.0095 -0.003,-0.014 0,0 0,-5e-4 -5e-4,-0.001 -0.001,-0.0055 -0.002,-0.0095 -0.003,-0.0145 0,0 0,-5e-4 0,-10e-4 -0.0115,-0.0525 -0.023,-0.105 -0.0345,-0.1575 0,-5e-4 0,-0.0015 -5e-4,-0.002 -0.001,-0.0045 -0.001,-0.0085 -0.002,-0.013 -0.001,-0.0045 -0.002,-0.009 -0.003,-0.013 0,-5e-4 0,-10e-4 -5e-4,-0.0015 -0.001,-0.0045 -0.002,-0.009 -0.003,-0.013 0,-5e-4 0,-0.002 -5e-4,-0.0025 -0.0105,-0.042 -0.0195,-0.0825 -0.029,-0.1225 z m -0.544,-1.924 -9.48,3.1815 c 0.0545,0.1625 0.106,0.3285 0.1525,0.4935 l 9.623,-2.72 c 0,-10e-4 -5e-4,-0.002 -0.001,-0.0035 -5e-4,-0.0025 -0.001,-0.005 -0.002,-0.007 -5e-4,-0.0025 -0.001,-0.0065 -0.002,-0.009 -5e-4,-0.002 -0.001,-0.0035 -0.001,-0.0055 -0.001,-0.004 -0.002,-0.0075 -0.003,-0.011 0,-10e-4 -5e-4,-0.002 -5e-4,-0.003 -0.001,-0.0045 -0.002,-0.0095 -0.004,-0.014 0,0 0,0 0,0 -0.0705,-0.246 -0.145,-0.4905 -0.224,-0.7325 -5e-4,-0.0015 -0.001,-0.003 -0.001,-0.0045 -5e-4,-0.002 -0.001,-0.005 -0.002,-0.007 -0.001,-0.003 -0.002,-0.006 -0.003,-0.009 0,-5e-4 -5e-4,-10e-4 -5e-4,-0.002 -0.017,-0.0495 -0.0335,-0.098 -0.05,-0.147 z m -0.7265,-1.8625 -9.1295,4.081 c 0.07,0.157 0.1375,0.3175 0.1995,0.4775 l 9.3155,-3.6355 c -0.121,-0.3115 -0.25,-0.619 -0.3855,-0.923 z m -0.903,-1.784 -8.695,4.9395 c 0.085,0.15 0.1675,0.3035 0.2455,0.4575 l 8.922,-4.516 c -0.132,-0.2605 -0.269,-0.518 -0.4115,-0.772 v -5e-4 c -0.002,-0.0045 -0.005,-0.0085 -0.007,-0.013 -5e-4,-5e-4 0,0 -5e-4,-5e-4 -0.002,-0.004 -0.005,-0.0085 -0.007,-0.0125 0,-5e-4 -5e-4,-0.0015 -0.001,-0.002 -0.002,-0.0035 -0.005,-0.0075 -0.007,-0.0115 -5e-4,-10e-4 -5e-4,-0.0015 -0.001,-0.0025 -0.002,-0.0035 -0.004,-0.0065 -0.006,-0.01 -5e-4,-0.001 -0.002,-0.004 -0.003,-0.005 -0.001,-0.0025 -0.003,-0.0055 -0.005,-0.0085 -0.001,-0.002 -0.002,-0.0035 -0.003,-0.006 -0.001,-0.002 -0.002,-0.0045 -0.004,-0.007 -0.001,-0.002 -0.003,-0.0055 -0.004,-0.0075 -10e-4,-0.002 -0.002,-0.004 -0.003,-0.006 -0.002,-0.0035 -0.004,-0.0065 -0.006,-0.01 -5e-4,-10e-4 -0.001,-0.002 -0.001,-0.003 -5e-4,-0.0015 -0.001,-0.002 -0.002,-0.0035 z m -1.07,-1.6885 -8.182,5.7495 c 0.0995,0.1415 0.197,0.2875 0.2895,0.4335 l 8.448,-5.351 c -0.0215,-0.034 -0.043,-0.0675 -0.0645,-0.1015 -10e-4,-0.002 -0.002,-0.0035 -0.004,-0.0055 -5e-4,-0.001 -0.001,-0.0025 -0.002,-0.004 -0.002,-0.003 -0.004,-0.0065 -0.006,-0.01 0,0 -5e-4,-5e-4 -5e-4,-5e-4 -0.107,-0.1665 -0.217,-0.3315 -0.3285,-0.495 -0.001,-0.0015 -0.002,-0.003 -0.003,-0.0045 -0.002,-0.0025 -0.004,-0.005 -0.006,-0.0075 -0.001,-0.0025 -0.004,-0.0055 -0.005,-0.0085 -5e-4,-10e-4 -0.002,-0.002 -0.002,-0.003 -0.0435,-0.065 -0.088,-0.1285 -0.133,-0.192 z m -1.226,-1.579 -7.596,6.5035 c 0.113,0.132 0.224,0.268 0.3305,0.405 l 7.8975,-6.134 c -0.019,-0.0245 -0.0385,-0.0495 -0.0575,-0.074 v 0 c -0.003,-0.004 -0.006,-0.0075 -0.01,-0.0115 0,-5e-4 -5e-4,-0.001 -10e-4,-0.0015 -0.002,-0.0035 -0.006,-0.007 -0.008,-0.0105 -5e-4,-0.001 -0.002,-0.0025 -0.002,-0.0035 -0.002,-0.0025 -0.004,-0.0055 -0.006,-0.0085 -10e-4,-0.0015 -0.002,-0.003 -0.004,-0.0045 -0.002,-0.0025 -0.004,-0.005 -0.006,-0.0075 -0.001,-0.002 -0.003,-0.004 -0.005,-0.006 -0.001,-0.002 -0.003,-0.004 -0.004,-0.006 -0.002,-0.002 -0.004,-0.0045 -0.006,-0.0065 -0.001,-0.0015 -0.002,-0.0035 -0.004,-0.0055 -0.002,-0.0025 -0.004,-0.005 -0.006,-0.008 -0.001,-0.001 -0.002,-0.0025 -0.003,-0.004 -0.002,-0.003 -0.005,-0.0055 -0.007,-0.0085 -0.001,-0.001 -0.001,-0.0025 -0.002,-0.0035 -0.002,-0.003 -0.005,-0.006 -0.007,-0.0095 -5e-4,-5e-4 -10e-4,-0.0015 -0.002,-0.0025 -0.002,-0.003 -0.005,-0.007 -0.008,-0.01 -5e-4,-5e-4 -0.001,-0.0015 -0.002,-0.002 -0.003,-0.0035 -0.006,-0.007 -0.008,-0.0105 0,0 -5e-4,-5e-4 -0.001,-0.001 -0.003,-0.004 -0.006,-0.007 -0.009,-0.011 0,-5e-4 -5e-4,-0.001 -10e-4,-0.001 -0.003,-0.0035 -0.005,-0.0075 -0.008,-0.0105 -5e-4,-5e-4 -0.001,-10e-4 -0.001,-0.0015 -0.002,-0.0035 -0.006,-0.007 -0.008,-0.0105 -5e-4,-5e-4 -10e-4,-10e-4 -10e-4,-0.0015 -0.004,-0.004 -0.006,-0.007 -0.009,-0.011 -5e-4,0 -5e-4,-5e-4 -0.001,-10e-4 -0.003,-0.0035 -0.006,-0.0075 -0.008,-0.011 -5e-4,-5e-4 -0.001,-10e-4 -0.002,-0.0015 -0.002,-0.0035 -0.005,-0.007 -0.008,-0.0105 -5e-4,-5e-4 -10e-4,-0.001 -10e-4,-0.002 -0.002,-0.003 -0.006,-0.007 -0.008,-0.01 -5e-4,-0.001 -0.001,-0.0015 -0.002,-0.0025 -0.002,-0.003 -0.006,-0.007 -0.008,-0.01 -5e-4,-5e-4 -0.001,-0.0015 -0.001,-0.002 -0.002,-0.003 -0.006,-0.0065 -0.008,-0.0095 -5e-4,-0.001 -0.001,-0.002 -0.002,-0.003 -0.002,-0.003 -0.005,-0.006 -0.007,-0.009 -0.001,-0.001 -0.001,-0.002 -0.002,-0.0035 -0.002,-0.0025 -0.005,-0.0055 -0.007,-0.0085 -0.001,-10e-4 -0.002,-0.0025 -0.003,-0.004 -0.002,-0.0025 -0.005,-0.0055 -0.007,-0.0085 -0.001,-0.001 -0.002,-0.0025 -0.003,-0.004 -0.002,-0.0025 -0.004,-0.0055 -0.007,-0.008 -10e-4,-0.0015 -0.002,-0.003 -0.004,-0.0045 -0.002,-0.0025 -0.004,-0.005 -0.006,-0.0075 -0.001,-0.0015 -0.002,-0.0035 -0.004,-0.005 -0.002,-0.0025 -0.004,-0.0045 -0.006,-0.007 -0.001,-0.002 -0.003,-0.0035 -0.004,-0.0055 -0.002,-0.0025 -0.003,-0.004 -0.006,-0.0065 -10e-4,-0.002 -0.003,-0.004 -0.005,-0.006 -0.001,-0.0015 -0.004,-0.0045 -0.005,-0.006 -0.001,-0.002 -0.004,-0.0045 -0.005,-0.0065 -0.001,-0.0015 -0.003,-0.0035 -0.005,-0.0055 -0.002,-0.002 -0.004,-0.0045 -0.005,-0.007 -0.002,-0.0015 -0.003,-0.003 -0.004,-0.005 -0.002,-0.0025 -0.004,-0.005 -0.006,-0.0075 -10e-4,-0.0015 -0.002,-0.0025 -0.004,-0.004 -0.002,-0.003 -0.004,-0.0055 -0.007,-0.0085 -5e-4,-0.001 -0.002,-0.002 -0.003,-0.003 -0.002,-0.003 -0.005,-0.0065 -0.008,-0.0095 -5e-4,-0.001 -0.001,-0.0015 -0.002,-0.0025 -0.002,-0.003 -0.005,-0.0065 -0.008,-0.01 -5e-4,-5e-4 -0.001,-10e-4 -0.001,-0.0015 -0.002,-0.0035 -0.005,-0.007 -0.008,-0.0105 -5e-4,-10e-4 -0.001,-10e-4 -0.001,-0.002 -0.002,-0.003 -0.006,-0.0065 -0.008,-0.01 -0.001,-0.001 -0.001,-0.001 -0.001,-0.002 -0.003,-0.003 -0.006,-0.0065 -0.008,-0.01 -5e-4,-5e-4 -0.001,-0.001 -0.001,-0.0015 -0.002,-0.0035 -0.006,-0.007 -0.008,-0.0105 -5e-4,-5e-4 -0.001,-0.001 -0.002,-0.0015 -0.003,-0.0035 -0.006,-0.007 -0.008,-0.0105 -5e-4,-0.001 -5e-4,-0.001 -10e-4,-0.002 -0.002,-0.0035 -0.006,-0.007 -0.008,-0.0105 -5e-4,-5e-4 -0.001,-0.001 -0.001,-0.0015 -0.003,-0.0035 -0.006,-0.007 -0.008,-0.01 -5e-4,-10e-4 -5e-4,-10e-4 -0.002,-0.002 -0.002,-0.0035 -0.005,-0.0065 -0.008,-0.01 -5e-4,-10e-4 -5e-4,-5e-4 -0.001,-0.002 -0.003,-0.003 -0.005,-0.0065 -0.008,-0.01 -0.001,-0.001 -0.001,-0.0015 -0.002,-0.0025 -0.002,-0.003 -0.005,-0.006 -0.007,-0.009 -0.001,-0.001 -0.002,-0.002 -0.002,-0.003 -0.002,-0.003 -0.005,-0.006 -0.007,-0.009 -0.001,-0.0015 -0.001,-0.002 -0.003,-0.0035 -0.002,-0.0025 -0.004,-0.0055 -0.007,-0.008 -5e-4,-0.001 -0.002,-0.0025 -0.003,-0.0035 -0.002,-0.003 -0.005,-0.0055 -0.007,-0.0085 -0.001,-0.0015 -0.002,-0.0025 -0.004,-0.004 -0.002,-0.0025 -0.005,-0.005 -0.006,-0.0075 -0.001,-0.0015 -0.003,-0.0035 -0.004,-0.005 -0.002,-0.002 -0.004,-0.0045 -0.006,-0.0065 -10e-4,-0.002 -0.004,-0.004 -0.005,-0.006 -0.001,-0.002 -0.003,-0.0035 -0.005,-0.0055 -0.002,-0.0025 -0.004,-0.0045 -0.006,-0.007 -0.001,-0.0015 -0.002,-0.003 -0.004,-0.0045 -0.002,-0.003 -0.005,-0.006 -0.008,-0.009 -5e-4,-5e-4 -0.001,-0.0015 -0.002,-0.0025 -0.002,-0.003 -0.006,-0.007 -0.008,-0.01 -5e-4,-5e-4 -0.001,-10e-4 -0.002,-0.0015 -0.022,-0.0235 -0.043,-0.048 -0.0645,-0.073 z m -1.371,-1.455 -6.942,7.198 c 0.125,0.1205 0.249,0.2455 0.3675,0.372 l 7.2775,-6.8585 c 0,-5e-4 -5e-4,-5e-4 -0.001,-0.001 -0.229,-0.243 -0.4625,-0.4795 -0.702,-0.7105 z m -1.504,-1.318 -6.2245,7.8265 c 0.1355,0.108 0.271,0.2205 0.401,0.335 l 6.591,-7.5205 c -0.039,-0.034 -0.078,-0.068 -0.117,-0.102 -0.001,-0.001 -0.002,-0.0015 -0.004,-0.0025 -0.002,-0.0025 -0.005,-0.0045 -0.008,-0.007 -0.002,-0.002 -0.004,-0.004 -0.007,-0.006 -0.002,-0.001 -0.002,-0.0025 -0.004,-0.0035 -0.2055,-0.1775 -0.415,-0.3505 -0.628,-0.52 z m -1.622,-1.168 -5.4485,8.3855 c 0.145,0.094 0.2895,0.193 0.43,0.294 l 5.844,-8.1145 c -0.0755,-0.0545 -0.152,-0.1085 -0.2285,-0.162 -5e-4,0 -5e-4,0 -0.001,-5e-4 -0.002,-0.0015 -0.005,-0.0035 -0.008,-0.0055 -0.002,-0.001 -0.004,-0.0025 -0.006,-0.0035 -0.001,-10e-4 -0.002,-0.002 -0.004,-0.0025 -0.003,-0.002 -0.006,-0.0045 -0.01,-0.0065 0,0 0,0 -5e-4,0 -0.0855,-0.06 -0.171,-0.1185 -0.258,-0.177 -0.001,-5e-4 -0.002,-0.0015 -0.003,-0.002 -0.004,-0.002 -0.007,-0.004 -0.01,-0.0065 -0.002,-0.0015 -0.004,-0.0025 -0.006,-0.004 -0.002,-0.0015 -0.005,-0.003 -0.007,-0.0045 -0.003,-0.002 -0.006,-0.004 -0.01,-0.0065 -0.001,-5e-4 -0.002,-0.0015 -0.004,-0.002 -0.0905,-0.062 -0.1815,-0.1225 -0.273,-0.182 z m -1.727,-1.008 -4.6195,8.869 c 0.153,0.0795 0.3055,0.164 0.4545,0.251 l 5.0405,-8.637 c -0.072,-0.042 -0.144,-0.0835 -0.2165,-0.1245 v 0 c -0.009,-0.005 -0.018,-0.01 -0.027,-0.015 v 0 c -0.009,-0.005 -0.018,-0.01 -0.027,-0.015 v 0 c -0.2,-0.113 -0.4015,-0.222 -0.605,-0.3285 z m -1.8155,-0.8365 -3.744,9.2725 c 0.159,0.0645 0.319,0.1335 0.475,0.2055 l 4.187,-9.0815 c -0.002,-5e-4 -0.005,-0.002 -0.007,-0.003 -0.002,-10e-4 -0.004,-0.002 -0.006,-0.003 -0.002,-5e-4 -0.005,-0.002 -0.007,-0.003 -0.002,-10e-4 -0.005,-0.002 -0.008,-0.0035 -10e-4,-0.001 -0.004,-0.002 -0.006,-0.003 -0.002,-10e-4 -0.005,-0.0025 -0.008,-0.0035 -0.002,-0.001 -0.004,-0.002 -0.007,-0.003 -0.003,-0.001 -0.005,-0.002 -0.007,-0.003 -0.002,-0.001 -0.006,-0.0025 -0.008,-0.0035 -0.002,-0.001 -0.005,-0.002 -0.006,-0.003 -0.002,-0.001 -0.004,-0.002 -0.007,-0.003 -0.002,-0.001 -0.005,-0.0025 -0.008,-0.0035 -0.002,-10e-4 -0.004,-0.002 -0.006,-0.0025 -0.003,-0.001 -0.006,-0.0025 -0.008,-0.004 -0.002,-0.001 -0.005,-0.002 -0.007,-0.003 -0.002,-10e-4 -0.005,-0.002 -0.007,-0.003 -0.002,-10e-4 -0.005,-0.002 -0.007,-0.003 -0.002,-10e-4 -0.005,-0.0025 -0.007,-0.0035 -0.001,-5e-4 -0.002,-0.001 -0.003,-0.0015 -0.004,-0.0015 -0.007,-0.0035 -0.011,-0.005 -0.002,-0.001 -0.004,-0.0015 -0.006,-0.003 -0.002,-0.001 -0.005,-0.002 -0.007,-0.0035 -0.251,-0.1145 -0.505,-0.223 -0.7615,-0.3265 z m -1.888,-0.6585 -2.832,9.5905 c 0.1645,0.0485 0.33,0.102 0.4915,0.158 L 133.94325,22 c -0.221,-0.077 -0.4435,-0.1505 -0.668,-0.22 -5e-4,0 -0.001,-5e-4 -0.001,-5e-4 -0.005,-10e-4 -0.009,-0.0025 -0.0135,-0.004 -0.001,0 -0.003,-5e-4 -0.004,-0.001 -0.004,-0.001 -0.008,-0.0025 -0.011,-0.0035 -0.002,-5e-4 -0.004,-0.001 -0.006,-0.002 -0.002,-5e-4 -0.006,-0.0015 -0.008,-0.0025 -0.004,-0.001 -0.007,-0.002 -0.0105,-0.003 -0.001,-5e-4 -0.002,-5e-4 -0.004,-0.001 -0.004,-10e-4 -0.009,-0.0025 -0.0135,-0.004 -5e-4,0 -5e-4,0 -0.001,0 -0.0695,-0.0225 -0.14,-0.0435 -0.21,-0.0645 z m -1.942,-0.473 -1.894,9.819 c 0.1685,0.0325 0.339,0.0695 0.5055,0.11 l 2.365,-9.7165 c -5e-4,0 -0.001,0 -0.002,-5e-4 -0.003,-5e-4 -0.006,-0.0015 -0.01,-0.002 -0.002,-5e-4 -0.004,-0.001 -0.006,-0.0015 -0.003,-5e-4 -0.006,-0.0015 -0.008,-0.002 -0.002,-5e-4 -0.006,-10e-4 -0.008,-0.002 -0.002,-5e-4 -0.005,-0.001 -0.006,-0.0015 -0.002,-5e-4 -0.007,-0.0015 -0.01,-0.002 -0.001,-5e-4 -0.004,-0.001 -0.006,-0.0015 -0.004,-0.001 -0.006,-0.0015 -0.0105,-0.0025 -0.002,-5e-4 -0.003,-5e-4 -0.005,-10e-4 -0.004,-0.001 -0.007,-0.0015 -0.0115,-0.0025 -0.001,0 -0.002,-5e-4 -0.004,-0.001 -0.004,-10e-4 -0.009,-0.002 -0.0135,-0.003 -5e-4,0 -0.001,0 -0.001,0 -0.005,-10e-4 -0.01,-0.0025 -0.015,-0.0035 0,0 -5e-4,0 -5e-4,0 -0.1365,-0.0325 -0.273,-0.063 -0.41,-0.093 0,0 0,0 -5e-4,0 -0.0105,-0.002 -0.02,-0.0045 -0.0305,-0.0065 -5e-4,0 -0.001,0 -0.001,0 -0.005,-0.001 -0.009,-0.002 -0.0145,-0.003 -5e-4,0 -0.001,0 -0.001,0 -0.004,-0.001 -0.009,-0.002 -0.0135,-0.003 -0.001,0 -0.002,0 -0.003,-5e-4 -0.005,-10e-4 -0.008,-0.0015 -0.0125,-0.0025 -0.001,0 -0.002,-5e-4 -0.003,-5e-4 -0.004,-5e-4 -0.007,-0.0015 -0.0105,-0.002 -0.002,-5e-4 -0.004,-5e-4 -0.006,-10e-4 -0.002,-5e-4 -0.006,-0.001 -0.008,-0.0015 -0.002,-5e-4 -0.005,-0.001 -0.008,-0.0015 -0.002,0 -0.002,-5e-4 -0.005,-0.001 -0.111,-0.026 -0.222,-0.0485 -0.3335,-0.07 z m -1.979,-0.284 -0.945,9.9555 c 0.1725,0.0165 0.347,0.037 0.518,0.0615 l 1.42,-9.8985 c -0.084,-0.012 -0.167,-0.0235 -0.251,-0.0345 v 0 c -0.005,-5e-4 -0.01,-0.001 -0.0145,-0.002 -0.001,0 -0.004,-5e-4 -0.005,-5e-4 -0.004,-5e-4 -0.007,-0.001 -0.0105,-0.0015 -0.002,0 -0.004,-5e-4 -0.007,-0.001 -0.002,0 -0.005,-5e-4 -0.008,-10e-4 -0.003,-5e-4 -0.007,-5e-4 -0.01,-0.001 -0.002,0 -0.004,-5e-4 -0.006,-5e-4 -0.004,-5e-4 -0.007,-0.001 -0.011,-0.0015 -0.001,0 -0.002,0 -0.003,0 -0.005,-5e-4 -0.009,-0.001 -0.013,-0.0015 -5e-4,0 -0.001,0 -0.002,0 -0.005,-5e-4 -0.01,-0.001 -0.0145,-0.002 v 0 c -0.149,-0.019 -0.2985,-0.036 -0.4485,-0.0515 h -0.001 c -0.004,0 -0.007,-5e-4 -0.01,-0.001 -0.002,0 -0.004,-5e-4 -0.006,-5e-4 -0.002,0 -0.005,-5e-4 -0.007,-5e-4 -0.002,0 -0.007,-5e-4 -0.01,-10e-4 -0.001,0 -0.003,0 -0.005,-5e-4 -0.004,-5e-4 -0.008,-5e-4 -0.012,-10e-4 -5e-4,0 -0.001,0 -0.002,0 -0.046,-0.0065 -0.092,-0.011 -0.136,-0.0155 z m -1.996,-0.094 v 10 c 0.176,0 0.3535,0.004 0.528,0.0125 l 0.4705,-9.989 c -0.2015,-0.0095 -0.404,-0.016 -0.607,-0.02 v 0 c -0.005,0 -0.01,0 -0.0135,0 -5e-4,0 -0.002,0 -0.003,0 -0.004,0 -0.008,0 -0.0125,0 -0.002,0 -0.002,0 -0.004,0 -0.004,0 -0.008,0 -0.012,0 -0.002,0 -0.002,0 -0.004,0 -0.004,0 -0.008,0 -0.0115,0 -10e-4,0 -0.004,0 -0.005,0 -0.004,0 -0.008,0 -0.011,0 -0.002,0 -0.003,0 -0.005,0 -0.004,0 -0.007,0 -0.0115,0 -0.002,0 -0.002,0 -0.004,0 -0.004,0 -0.008,0 -0.0115,0 -10e-4,0 -0.003,0 -0.004,0 -0.004,0 -0.008,0 -0.0115,0 -0.001,0 -0.003,0 -0.005,0 -0.004,0 -0.007,0 -0.011,0 -0.002,0 -0.004,0 -0.006,0 -0.004,0 -0.007,0 -0.01,0 -5e-4,0 -10e-4,0 -0.002,0 -0.008,0 -0.016,0 -0.024,0 -0.002,0 -0.004,0 -0.005,0 -0.003,0 -0.005,0 -0.008,0 -0.002,0 -0.006,0 -0.008,0 -0.002,0 -0.005,0 -0.007,0 -0.002,0 -0.006,0 -0.008,0 -0.003,0 -0.005,0 -0.008,0 -0.003,0 -0.006,0 -0.009,0 -0.002,0 -0.005,0 -0.007,0 -0.003,0 -0.005,0 -0.008,0 -0.003,0 -0.006,0 -0.008,0 -0.003,0 -0.007,0 -0.01,0 -0.002,0 -0.004,0 -0.006,0 -0.003,0 -0.007,0 -0.01,0 -0.002,0 -0.005,0 -0.007,0 -0.002,0 -0.007,0 -0.01,0 -0.002,0 -0.004,0 -0.007,0 -0.004,0 -0.005,0 -0.01,0 -0.002,0 -0.005,0 -0.007,0 -0.004,0 -0.006,0 -0.01,0 -0.002,0 -0.004,0 -0.007,0 -0.004,0 -0.007,0 -0.01,0 -0.002,0 -0.004,0 -0.006,0 -0.004,0 -0.007,0 -0.0115,0 -0.002,0 -0.003,0 -0.005,0 -0.007,-0.0035 -0.0115,-0.0035 -0.017,-0.0035 z"
   id="path16779"
   style="stroke-width:0.5" />
	</g>
	<g
   id="g16785">
		<path
   fill="#262626"
   d="M127.07,2c21.891,0,39.7,17.811,39.7,39.703c0,21.88-17.809,39.681-39.7,39.681    c-21.882,0-39.685-17.801-39.685-39.681C87.385,19.811,105.188,2,127.07,2 M127.07,0c-23.023,0-41.685,18.663-41.685,41.703    c0,23.02,18.662,41.681,41.685,41.681c23.036,0,41.7-18.661,41.7-41.681C168.77,18.663,150.105,0,127.07,0L127.07,0z"
   id="path16783"
   style="fill:#002b00" />
	</g>
	<g
   opacity="0.06"
   id="g16789">
		<path
   fill="#FFFFFF"
   d="M163.091,41.703c0,19.876-16.126,36.003-36.021,36.003c-19.879,0-36.006-16.127-36.006-36.003    c0-19.898,16.127-36.025,36.006-36.025C146.965,5.678,163.091,21.805,163.091,41.703z"
   id="path16787"
   style="fill:#55ff55" />
	</g>
	<g
   id="g16795">
		<path
   fill="#212121"
   d="M127.07,69.832c-15.508,0-28.124-12.618-28.124-28.128c0-15.506,12.616-28.121,28.124-28.121    c15.51,0,28.127,12.615,28.127,28.121C155.197,57.213,142.58,69.832,127.07,69.832z"
   id="path16791"
   style="fill:#00aa00" />
		<path
   fill="#1A1A1A"
   d="M127.07,16.582c13.855,0,25.127,11.269,25.127,25.121c0,13.856-11.272,25.128-25.127,25.128    c-13.854,0-25.124-11.272-25.124-25.128C101.946,27.851,113.216,16.582,127.07,16.582 M127.07,10.582    c-17.195,0-31.124,13.927-31.124,31.121c0,17.191,13.929,31.128,31.124,31.128c17.198,0,31.127-13.937,31.127-31.128    C158.197,24.509,144.268,10.582,127.07,10.582L127.07,10.582z"
   id="path16793"
   style="fill:#008000" />
	</g>
</g>
<g
   id="LS_pressed">
	<g
   id="g16803">
		<path
   fill="#E5E5E5"
   d="M83.385,41.703c0,23.02-18.664,41.681-41.7,41.681C18.662,83.384,0,64.723,0,41.703    C0,18.663,18.662,0,41.685,0C64.721,0,83.385,18.663,83.385,41.703z"
   id="path16799"
   style="fill:#1a1a1a" />
		<path
   fill="#bfbfbf"
   d="m 41.68975,20.843 c -0.0055,0 -0.0105,0 -0.0165,0 -0.0015,0 -0.0035,0 -0.0055,0 -0.0035,0 -0.0075,0 -0.0105,0 -0.0025,0 -0.0045,0 -0.007,0 -0.0025,0 -0.0065,0 -0.0095,0 -0.0025,0 -0.0045,0 -0.007,0 -0.0035,0 -0.006,0 -0.01,0 -0.002,0 -0.0045,0 -0.0065,0 -0.0035,0 -0.0065,0 -0.01,0 -0.002,0 -0.0045,0 -0.0065,0 -0.0035,0 -0.0065,0 -0.01,0 -0.002,0 -0.0045,0 -0.0065,0 -0.003,0 -0.007,0 -0.01,0 -0.002,0 -0.004,0 -0.0065,0 -0.0035,0 -0.006,0 -0.0095,0 -0.0025,0 -0.005,0 -0.0075,0 -0.003,0 -0.0055,0 -0.0085,0 -0.003,0 -0.0055,0 -0.008,0 -0.0025,0 -0.006,0 -0.009,0 -0.0025,0 -0.005,0 -0.0075,0 -0.0025,0 -0.0065,0 -0.0095,0 -0.002,0 -0.0045,0 -0.007,0 -0.0025,0 -0.007,0 -0.01,0 -0.002,0 -0.0045,0 -0.0065,0 -0.004,0 -0.0075,0 -0.0115,0 -0.0015,0 -0.003,0 -0.0045,0 -0.0055,0 -0.0105,0 -0.0165,0 -0.0015,0 -0.003,0 -0.0045,0 -0.004,0 -0.0075,0 -0.0115,0 -0.0025,0 -0.0055,0 -0.008,0 -0.0025,0 -0.005,0 -0.008,0 -0.003,0 -0.006,0 -0.009,0 -0.0025,0 -0.0045,0 -0.0075,0 -0.003,0 -0.006,0 -0.009,0 -0.003,0 -0.0045,0 -0.007,0 -0.003,0 -0.006,0 -0.0095,0 -0.002,0 -0.0055,0 -0.0075,0 -0.003,0 -0.006,0 -0.009,0 -0.002,0 -0.005,0 -0.007,0 -0.003,0 -0.006,0 -0.0095,0 -0.0025,0 -0.0045,0 -0.007,0 -0.003,0 -0.006,0 -0.009,0 -0.002,0 -0.005,0 -0.007,0 -0.003,0 -0.0065,0 -0.0095,0 -0.002,0 -0.005,0 -0.007,0 -0.003,0 -0.0065,0 -0.01,0 -10e-4,0 -0.004,0 -0.0055,0 -0.0035,0 -0.0075,0 -0.011,0 -0.0015,0 -0.0025,0 -0.004,0 -0.004,0 -0.008,0 -0.012,0 -5e-4,0 -0.002,0 -0.0025,0 -0.0245,5e-4 -0.0495,0.001 -0.074,0.0015 -5e-4,0 -0.001,0 -0.002,0 -0.0045,0 -0.009,0 -0.0135,5e-4 -5e-4,0 -0.0015,0 -0.002,0 -0.0045,0 -0.0095,0 -0.014,0 -5e-4,0 -0.001,0 -0.002,0 -0.0045,0 -0.0095,0 -0.014,5e-4 -5e-4,0 -10e-4,0 -0.0015,0 -0.0045,0 -0.009,0 -0.0135,5e-4 -5e-4,0 -0.0015,0 -0.0025,0 -0.0045,0 -0.0095,0 -0.014,0 h -0.001 c -0.005,0 -0.01,5e-4 -0.0145,5e-4 h -5e-4 c -0.0105,0 -0.0205,5e-4 -0.031,0.001 v 0 c -0.125,0.0035 -0.2495,0.0085 -0.3735,0.0145 l 0.4715,9.989 c 0.1775,-0.004 0.355,-0.008 0.531,-0.008 v -10 z m -1.9975,0.0945 c -0.028,0.0025 -0.0565,0.0055 -0.0845,0.0085 0,0 0,0 0,0 -0.0045,5e-4 -0.0095,10e-4 -0.0145,0.0015 -0.0015,0 -0.003,0 -0.0045,0 -0.0035,5e-4 -0.007,5e-4 -0.0105,10e-4 -0.002,0 -0.0045,5e-4 -0.007,5e-4 -0.002,0 -0.0055,5e-4 -0.0075,10e-4 -0.0035,0 -0.007,5e-4 -0.0105,0.001 -10e-4,0 -0.002,0 -0.0035,0 -0.004,5e-4 -0.0085,0.001 -0.013,0.0015 h -10e-4 c -0.2805,0.029 -0.559,0.063 -0.836,0.103 l 1.422,9.8985 c 0.171,-0.0245 0.345,-0.0455 0.5175,-0.062 z m -1.9785,0.2845 c -0.015,0.003 -0.0305,0.006 -0.0455,0.009 -5e-4,0 -5e-4,0 -10e-4,0 -0.0045,5e-4 -0.0085,0.0015 -0.013,0.0025 -10e-4,0 -0.0015,0 -0.003,5e-4 -0.004,10e-4 -0.008,0.0015 -0.012,0.0025 -10e-4,0 -0.0025,5e-4 -0.004,5e-4 -0.0035,5e-4 -0.0075,0.0015 -0.011,0.002 -0.001,0 -0.003,5e-4 -0.0045,10e-4 -0.0035,5e-4 -0.007,0.001 -0.0105,0.002 -0.0015,0 -0.004,10e-4 -0.0055,10e-4 -0.003,5e-4 -0.006,0.001 -0.009,0.0015 -0.002,5e-4 -0.0055,0.001 -0.0075,0.0015 -0.0025,5e-4 -0.0055,0.001 -0.008,0.0015 -0.002,0 -0.0055,0.001 -0.0075,0.0015 -0.0025,5e-4 -0.005,0.001 -0.0075,0.0015 -0.0025,5e-4 -0.0055,0.001 -0.0085,0.0015 -0.0025,5e-4 -0.005,0.001 -0.0075,0.0015 -0.0025,5e-4 -0.006,0.001 -0.009,0.0015 -0.002,5e-4 -0.004,5e-4 -0.006,0.001 -0.004,5e-4 -0.0065,0.001 -0.0105,0.002 -0.0015,0 -0.0035,5e-4 -0.005,0.001 -0.004,5e-4 -0.007,0.0015 -0.011,0.002 -0.0015,0 -0.003,5e-4 -0.0045,0.001 -0.004,5e-4 -0.0075,0.0015 -0.0115,0.002 -0.0015,5e-4 -0.003,5e-4 -0.004,0.001 -0.004,5e-4 -0.0095,0.002 -0.0135,0.0025 -5e-4,0 -10e-4,0 -0.0015,0 -0.0055,0.001 -0.01,0.002 -0.015,0.003 0,0 -5e-4,0 -5e-4,0 -0.2415,0.05 -0.482,0.104 -0.7205,0.162 l 2.368,9.7155 c 0.1665,-0.0405 0.3365,-0.0775 0.5055,-0.1105 z m -1.9425,0.4735 c -0.135,0.04 -0.268,0.0805 -0.4015,0.123 0,0 -5e-4,0 -5e-4,0 -0.01,0.003 -0.02,0.0065 -0.0305,0.01 v 0 c -0.0095,0.003 -0.019,0.006 -0.0285,0.009 -5e-4,0 -0.0015,5e-4 -0.0025,5e-4 -0.008,0.0025 -0.017,0.0055 -0.025,0.008 -0.1555,0.05 -0.31,0.102 -0.4635,0.156 l 3.2955,9.4415 c 0.162,-0.0565 0.327,-0.11 0.4915,-0.158 z m -1.8875,0.6585 c -0.3095,0.125 -0.616,0.258 -0.9175,0.397 l 4.1905,9.0795 c 0.156,-0.072 0.3155,-0.141 0.475,-0.2055 z m -1.8155,0.838 c -0.296,0.1545 -0.588,0.3155 -0.875,0.4835 l 5.044,8.635 c 0.149,-0.087 0.302,-0.1715 0.4545,-0.251 z m -1.726,1.0085 c -0.2795,0.182 -0.5545,0.37 -0.825,0.565 l 5.8475,8.1125 c 0.1405,-0.1015 0.285,-0.2 0.43,-0.2945 z m -1.622,1.169 c -0.261,0.208 -0.517,0.4215 -0.7675,0.6415 l 6.595,7.517 c 0.1305,-0.1145 0.265,-0.2275 0.401,-0.335 z m -1.503,1.318 c -0.1425,0.1375 -0.2825,0.277 -0.421,0.418 -5e-4,5e-4 -5e-4,0.001 -0.001,0.001 -0.003,0.0035 -0.0065,0.0065 -0.0095,0.01 -0.001,0.001 -0.001,0.001 -0.002,0.002 -0.003,0.003 -0.0055,0.006 -0.0085,0.009 -0.0015,0.0015 -0.0025,0.0025 -0.0035,0.004 -0.0025,0.002 -0.0045,0.0045 -0.007,0.007 -0.0015,0.002 -0.0035,0.0035 -0.0055,0.0055 -0.0015,0.0015 -0.0035,0.0035 -0.005,0.0055 -0.0025,0.002 -0.005,0.005 -0.0075,0.0075 -10e-4,0.001 -0.002,0.0025 -0.0035,0.0035 -0.003,0.003 -0.0055,0.006 -0.009,0.009 -5e-4,5e-4 -10e-4,0.001 -0.002,0.0015 -0.073,0.0755 -0.1455,0.1515 -0.2175,0.2275 l 7.2805,6.855 c 0.119,-0.1265 0.2425,-0.2515 0.3675,-0.372 z m -1.3705,1.456 c -0.001,0.0015 -0.0025,0.003 -0.004,0.0045 -0.002,0.002 -0.004,0.0045 -0.0055,0.007 -0.0015,0.0015 -0.003,0.0035 -0.0045,0.005 -0.002,0.0025 -0.004,0.0045 -0.006,0.007 -0.0015,0.002 -0.003,0.004 -0.005,0.006 -0.002,0.002 -0.0035,0.004 -0.005,0.006 -0.0015,0.002 -0.003,0.0035 -0.0045,0.0055 -0.002,0.002 -0.004,0.0045 -0.006,0.007 -10e-4,0.0015 -0.0025,0.003 -0.004,0.0045 -0.002,0.0025 -0.004,0.005 -0.0065,0.0075 -5e-4,0.001 -0.0025,0.0025 -0.003,0.0035 -0.0025,0.003 -0.0045,0.0055 -0.007,0.0085 0,5e-4 -0.0015,0.002 -0.002,0.0025 -0.0025,0.003 -0.0055,0.0065 -0.008,0.0095 l -5e-4,0.001 c -0.188,0.222 -0.3715,0.4485 -0.5505,0.6785 -0.003,0.004 -0.0065,0.008 -0.0095,0.012 l 7.9005,6.13 c 0.1065,-0.137 0.2175,-0.273 0.33,-0.405 z m -1.2255,1.5795 c -0.0265,0.0375 -0.0525,0.0755 -0.079,0.1135 -5e-4,10e-4 -10e-4,0.0015 -0.002,0.0025 -0.0015,0.0025 -0.003,0.005 -0.005,0.0075 -0.001,0.0015 -0.003,0.0045 -0.0045,0.006 -0.001,0.0015 -0.002,0.003 -0.003,0.0045 -0.1585,0.2295 -0.3125,0.462 -0.4615,0.698 l 8.45,5.347 c 0.0925,-0.146 0.1895,-0.292 0.2895,-0.4335 z m -1.069,1.6895 c -0.0765,0.135 -0.152,0.271 -0.2255,0.408 -5e-4,0.001 -5e-4,0.001 -0.001,0.002 -5e-4,0.0015 -0.0015,0.003 -0.0025,0.0045 -0.083,0.1545 -0.164,0.31 -0.2435,0.4665 l 8.9245,4.512 c 0.0775,-0.154 0.16,-0.3075 0.2455,-0.4575 z m -0.902,1.784 c -0.034,0.0755 -0.0675,0.152 -0.1,0.228 l -5e-4,5e-4 c -0.004,0.0095 -0.008,0.019 -0.012,0.0285 v 0 c -0.004,0.0095 -0.0085,0.019 -0.012,0.0285 v 0 c -0.09,0.2105 -0.177,0.423 -0.2605,0.6365 l 9.317,3.632 c 0.0625,-0.16 0.1295,-0.3205 0.1995,-0.4775 z m -0.726,1.863 c -0.045,0.134 -0.088,0.267 -0.13,0.402 -5e-4,0.0015 -0.001,0.003 -0.0015,0.0045 -0.001,0.004 -0.002,0.007 -0.0035,0.0105 -5e-4,0.0015 -10e-4,0.0035 -0.0015,0.005 -10e-4,0.0035 -0.002,0.0065 -0.003,0.01 -5e-4,0.002 -0.0015,0.004 -0.002,0.006 -0.001,0.0025 -0.002,0.007 -0.003,0.0095 -5e-4,0.0015 -0.001,0.003 -0.0015,0.0045 -0.001,0.003 -0.002,0.007 -0.003,0.0105 -5e-4,0.0015 -0.001,0.003 -0.0015,0.005 -0.001,0.003 -0.002,0.0075 -0.003,0.0105 -5e-4,0.0015 -0.001,0.003 -0.001,0.004 -10e-4,0.0035 -0.0025,0.0075 -0.0035,0.0105 -5e-4,0.0015 -10e-4,0.0035 -0.0015,0.005 -10e-4,0.003 -0.002,0.007 -0.003,0.0105 -5e-4,0.0015 -10e-4,0.003 -0.0015,0.005 -10e-4,0.003 -0.002,0.007 -0.003,0.0105 -5e-4,0.0015 -10e-4,0.003 -0.0015,0.0045 -10e-4,0.003 -0.0025,0.008 -0.0035,0.011 0,10e-4 -5e-4,0.0025 -0.001,0.004 -10e-4,0.004 -0.002,0.007 -0.003,0.011 -5e-4,0.0015 -10e-4,0.003 -0.0015,0.0045 -10e-4,0.003 -0.002,0.0075 -0.003,0.0105 -5e-4,0.0015 -10e-4,0.0025 -10e-4,0.004 -0.001,0.0035 -0.0025,0.0075 -0.0035,0.0115 0,0.001 -5e-4,0.002 -10e-4,0.003 -0.001,0.004 -0.0025,0.009 -0.0035,0.0125 0,5e-4 -5e-4,0.0015 -5e-4,0.002 -10e-4,0.004 -0.0025,0.009 -0.004,0.0125 0,10e-4 -5e-4,0.002 -5e-4,0.003 -10e-4,0.004 -0.0025,0.009 -0.004,0.0125 0,5e-4 -5e-4,0.0015 -5e-4,0.002 -10e-4,0.004 -0.0025,0.0095 -0.004,0.013 0,5e-4 -5e-4,0.0015 -5e-4,0.002 -0.0015,0.005 -0.0025,0.0085 -0.004,0.0135 0,5e-4 0,5e-4 -5e-4,10e-4 -0.0015,0.005 -0.0025,0.009 -0.004,0.014 0,5e-4 0,5e-4 0,10e-4 -0.0275,0.0925 -0.054,0.1835 -0.08,0.2765 l 9.624,2.716 c 0.0465,-0.165 0.098,-0.331 0.1525,-0.4935 z m -0.543,1.924 c -0.061,0.2635 -0.1165,0.529 -0.1675,0.7965 -0.0115,0.061 -0.0225,0.122 -0.034,0.183 l 9.841,1.776 c 0.0305,-0.169 0.0655,-0.34 0.104,-0.5075 z m -0.3555,1.967 c -0.028,0.2135 -0.0525,0.4275 -0.074,0.6425 0,10e-4 0,0.002 0,0.003 -5e-4,0.004 -0.001,0.008 -0.001,0.012 0,0.0015 -5e-4,0.0035 -5e-4,0.005 0,0.0025 -5e-4,0.006 -5e-4,0.009 0,0.0025 -5e-4,0.0055 -5e-4,0.0085 0,0.0015 -5e-4,0.004 -5e-4,0.0055 0,0.004 -5e-4,0.008 -0.001,0.0115 v 10e-4 c -0.0095,0.0985 -0.0185,0.197 -0.0265,0.296 l 9.966,0.827 c 0.0145,-0.173 0.033,-0.3475 0.0555,-0.5195 z m -0.1655,1.9925 c -0.0055,0.1595 -0.0095,0.3195 -0.0115,0.4795 0,0.0015 0,0.0025 0,0.004 0,0.005 0,0.01 0,0.0145 0,5e-4 0,0.0015 0,0.002 0,0.0095 0,0.019 0,0.028 0,0.0015 0,0.0035 0,0.0055 0,0.004 0,0.0085 0,0.0125 0,0.0025 0,0.0055 0,0.008 0,0.0055 0,0.0115 0,0.017 0,0.004 0,0.008 0,0.012 0,0.0035 0,0.0065 0,0.01 0,0.0035 0,0.0075 0,0.011 0,0.0035 0,0.006 0,0.0095 0,0.005 0,0.01 0,0.015 0,0.0025 0,0.007 0,0.01 0,0.005 0,0.01 0,0.015 0,0.002 0,0.006 0,0.0085 0,0.005 0,0.0095 0,0.0145 0,0.002 0,0.004 0,0.006 0,0.007 0,0.0135 0,0.0205 0,0.002 0,0.0035 0,0.0055 0,0.0055 0,0.0105 0,0.016 0,0.002 0,0.004 0,0.006 0,0.007 0,0.014 0,0.021 v 0 0 c 0,0.0055 0,0.0105 0,0.016 0,0.003 0,0.0065 0,0.0095 0,0.002 0,0.004 0,0.006 0,0.005 0,0.01 0,0.015 v 0 c 0,0.0675 5e-4,0.135 0.0015,0.202 l 9.9995,-0.117 -0.0025,-0.1315 c 0,-0.133 0.0025,-0.266 0.007,-0.398 z m 10.0065,1.4105 -9.9825,0.5895 c 0.0165,0.284 0.0395,0.568 0.0675,0.8485 0,10e-4 0,0.002 0,0.0025 0,0.004 5e-4,0.0085 0.001,0.0125 0,0.0015 0,0.003 5e-4,0.0045 0,0.0035 5e-4,0.0065 10e-4,0.01 0,0.0025 5e-4,0.0055 5e-4,0.008 0,0.002 5e-4,0.004 5e-4,0.006 0,0.0035 5e-4,0.0075 0.001,0.011 0,5e-4 0,0.002 0,0.0025 0.003,0.0305 0.0065,0.061 0.0095,0.091 l 9.943,-1.065 c -0.0175,-0.1725 -0.032,-0.3475 -0.042,-0.521 z m 0.111,1.037 -9.8805,1.54 c 0.001,0.006 0.002,0.012 0.0025,0.018 0,0.0015 5e-4,0.0025 5e-4,0.004 5e-4,0.0035 0.001,0.008 0.0015,0.011 5e-4,0.003 0.001,0.006 0.0015,0.009 0,0.0015 5e-4,0.0045 0.001,0.006 5e-4,0.004 0.001,0.0085 0.002,0.0125 0,5e-4 0,0.0015 0,0.0025 0.0415,0.2625 0.0885,0.523 0.14,0.7825 0,10e-4 0,10e-4 5e-4,0.0025 5e-4,0.0035 0.0015,0.007 0.002,0.0105 0,0.002 10e-4,0.005 0.0015,0.007 0,0.0025 5e-4,0.0045 10e-4,0.007 5e-4,0.0035 0.0015,0.0075 0.002,0.0105 0,0.001 5e-4,0.0025 5e-4,0.0035 5e-4,0.0045 0.0015,0.0095 0.0025,0.014 0,0 0,0 0,5e-4 0.0055,0.028 0.0115,0.0555 0.017,0.0835 l 9.795,-2.0145 c -0.033,-0.1685 -0.064,-0.34 -0.0905,-0.51 z m 0.2085,1.0135 -9.6865,2.485 c 0.083,0.324 0.174,0.645 0.2715,0.9625 l 9.555,-2.9505 c -0.0505,-0.164 -0.0975,-0.331 -0.14,-0.497 z m 0.3045,0.9865 -9.401,3.409 c 0.114,0.314 0.235,0.6245 0.3635,0.9315 l 9.2255,-3.859 c -0.0665,-0.1585 -0.1295,-0.3205 -0.188,-0.4815 z m 0.399,0.9535 -9.0285,4.2995 c 0.0175,0.0365 0.0345,0.073 0.052,0.109 5e-4,0.001 0.0015,0.0035 0.002,0.0045 0.001,0.002 0.002,0.0035 0.0025,0.0055 0.0015,0.003 0.003,0.0065 0.0045,0.0095 0,0 5e-4,5e-4 5e-4,0.001 0.0895,0.185 0.1815,0.367 0.2765,0.549 v 0 c 0.002,0.004 0.0045,0.0085 0.0065,0.012 5e-4,10e-4 0.001,0.002 0.0015,0.0035 0.0015,0.0025 0.0035,0.006 0.005,0.009 10e-4,0.002 0.002,0.0045 0.0035,0.0065 5e-4,0.0015 0.002,0.0045 0.003,0.006 0.0015,0.003 0.003,0.006 0.0045,0.009 5e-4,0.002 0.001,0.002 0.002,0.004 0.0285,0.0545 0.0575,0.109 0.0865,0.1635 l 8.8115,-4.729 c -0.081,-0.1515 -0.1595,-0.307 -0.2335,-0.4625 z m 0.4905,0.9145 -8.574,5.147 c 0.0485,0.0805 0.097,0.16 0.1465,0.24 v 5e-4 c 0.002,0.0035 0.0045,0.007 0.0065,0.0105 5e-4,10e-4 0.0015,0.0025 0.002,0.0035 0.001,0.002 0.0025,0.004 0.004,0.006 0.0015,0.003 0.0035,0.006 0.0055,0.009 0,0 5e-4,5e-4 5e-4,0.001 0.12,0.1935 0.2435,0.385 0.3695,0.574 l 8.318,-5.552 c -0.096,-0.144 -0.1895,-0.292 -0.2785,-0.4395 z m 0.5785,0.866 -8.042,5.9435 c 0.037,0.05 0.0745,0.1 0.112,0.15 v 5e-4 c 0.003,0.004 0.006,0.008 0.009,0.0115 l 0.001,0.001 c 0.003,0.0035 0.0055,0.0075 0.0085,0.0105 5e-4,10e-4 0.001,0.0015 0.0015,0.0025 0.0025,0.0035 0.005,0.007 0.0075,0.01 5e-4,0.001 0.001,0.0015 0.002,0.0025 0.0025,0.003 0.005,0.0065 0.0075,0.0095 5e-4,0.001 0.002,0.0025 0.003,0.004 0.002,0.0025 0.004,0.0055 0.006,0.008 10e-4,0.0015 0.0025,0.003 0.0035,0.0045 0.002,0.0025 0.0035,0.005 0.0055,0.0075 0.001,0.0015 0.003,0.004 0.004,0.0055 0.0015,0.002 0.0035,0.0045 0.0055,0.007 10e-4,0.0015 0.003,0.004 0.004,0.0055 0.0015,0.0025 0.0035,0.0045 0.005,0.007 0.002,0.0025 0.003,0.004 0.005,0.0065 0.0015,0.0015 0.003,0.0035 0.0045,0.0055 0.002,0.0025 0.003,0.0045 0.0055,0.007 0.001,0.002 0.0025,0.0035 0.004,0.0055 0.002,0.0035 0.004,0.006 0.006,0.0085 0.001,0.0015 0.002,0.003 0.003,0.0045 0.002,0.0025 0.0045,0.006 0.0065,0.0085 0.001,0.0015 0.002,0.0025 0.003,0.004 0.002,0.003 0.005,0.0065 0.0075,0.0095 5e-4,5e-4 0.001,0.0015 0.002,0.0025 0.002,0.003 0.005,0.007 0.0075,0.01 5e-4,5e-4 0.001,0.0015 0.0015,0.0025 0.003,0.0035 0.0055,0.007 0.0085,0.0105 0,5e-4 5e-4,5e-4 5e-4,0.001 0.003,0.004 0.006,0.0075 0.009,0.0115 0,0 0,5e-4 5e-4,5e-4 0.1155,0.1495 0.233,0.298 0.3525,0.4445 l 7.749,-6.321 c -0.109,-0.134 -0.2165,-0.2725 -0.3195,-0.412 z m 0.66,0.8095 -7.4385,6.683 c 0.223,0.248 0.4515,0.4905 0.686,0.728 l 7.1115,-7.0305 c -0.122,-0.1235 -0.243,-0.2515 -0.359,-0.3805 z m 0.7355,0.7435 -6.7685,7.3615 c 0.125,0.115 0.2525,0.2295 0.3805,0.3415 5e-4,5e-4 0.001,5e-4 0.001,0.001 0.003,0.0025 0.0055,0.0045 0.0085,0.007 0.0015,10e-4 0.003,0.0025 0.0045,0.004 0.0015,0.001 0.0035,0.003 0.005,0.0045 0.0025,0.002 0.005,0.004 0.0075,0.006 10e-4,0.001 0.0015,0.001 0.0025,0.002 0.003,0.003 0.0065,0.0055 0.01,0.0085 l 5e-4,5e-4 c 0.11,0.0955 0.2205,0.19 0.3325,0.2835 l 6.409,-7.675 c -0.133,-0.1115 -0.265,-0.227 -0.393,-0.345 z m 0.802,0.67 -6.036,7.973 c 0.1535,0.116 0.3085,0.2305 0.4655,0.3425 0.1145,0.082 0.23,0.1625 0.346,0.242 l 5.6475,-8.2525 c -0.1425,-0.098 -0.285,-0.2005 -0.423,-0.305 z m 0.86,0.5885 -5.246,8.5135 c 0.017,0.0105 0.0345,0.021 0.052,0.0315 0.001,5e-4 0.001,5e-4 0.002,0.0015 0.003,0.002 0.0065,0.004 0.0095,0.0055 0.0015,10e-4 0.0035,0.002 0.005,0.0035 0.002,10e-4 0.004,0.0025 0.006,0.0035 0.0025,0.0015 0.006,0.0035 0.009,0.0055 10e-4,5e-4 0.002,10e-4 0.003,0.0015 0.2495,0.152 0.503,0.2995 0.759,0.441 5e-4,0 0.001,5e-4 0.0015,5e-4 0.0035,0.002 0.0065,0.0035 0.01,0.0055 0.0015,0.001 0.0035,0.002 0.0055,0.003 5e-4,0 10e-4,5e-4 0.0015,0.001 l 4.8315,-8.7555 c -0.1515,-0.083 -0.3025,-0.171 -0.4495,-0.2615 z m 0.909,0.5015 -4.4045,8.978 c 0.056,0.0275 0.112,0.0545 0.168,0.0815 l 10e-4,5e-4 c 0.004,0.002 0.008,0.004 0.012,0.006 0.001,5e-4 0.0015,5e-4 0.0025,10e-4 0.0035,0.0015 0.007,0.0035 0.0105,0.005 10e-4,5e-4 0.0035,0.0015 0.005,0.002 0.0025,0.001 0.0055,0.0025 0.0085,0.004 0.0025,10e-4 0.0045,0.002 0.007,0.0035 0.002,0.001 0.004,0.002 0.0065,0.003 0.002,0.001 0.0065,0.003 0.009,0.004 0.0015,10e-4 0.003,0.0015 0.005,0.0025 0.003,0.0015 0.0065,0.003 0.0095,0.0045 0.0015,5e-4 0.003,0.0015 0.0045,0.002 0.0035,0.0015 0.0075,0.0035 0.011,0.0055 5e-4,0 0.0015,5e-4 0.002,10e-4 0.0045,0.002 0.0085,0.004 0.013,0.006 0,0 5e-4,0 5e-4,5e-4 0.209,0.0985 0.4195,0.194 0.6325,0.286 l 3.9665,-9.1795 c -0.1575,-0.068 -0.316,-0.141 -0.47,-0.217 z m 0.9495,0.4105 -3.519,9.3605 c 0.312,0.117 0.6255,0.2265 0.9445,0.329 l 3.062,-9.5195 c -0.163,-0.0525 -0.327,-0.1095 -0.4875,-0.17 z m 0.983,0.3165 -2.5985,9.6565 c 0.04,0.0105 0.08,0.021 0.12,0.0315 h 5e-4 c 0.0045,10e-4 0.0095,0.0025 0.014,0.0035 5e-4,0 0.001,0 0.002,5e-4 0.004,0.001 0.008,0.002 0.012,0.003 0.0015,5e-4 0.003,0.001 0.0045,0.001 0.0035,5e-4 0.007,0.0015 0.0105,0.0025 0.0025,5e-4 0.004,10e-4 0.0065,0.0015 0.0025,5e-4 0.005,10e-4 0.0075,0.002 0.003,5e-4 0.006,0.0015 0.0095,0.0025 0.0015,5e-4 0.0035,10e-4 0.0055,0.0015 0.004,10e-4 0.008,0.002 0.0115,0.003 10e-4,0 0.002,5e-4 0.0025,5e-4 0.0045,10e-4 0.009,0.002 0.0135,0.0035 5e-4,0 10e-4,0 0.002,5e-4 0.2485,0.064 0.4975,0.123 0.7495,0.178 l 2.1295,-9.771 c -0.168,-0.035 -0.337,-0.0765 -0.5025,-0.1205 z m 1.0105,0.22 -1.656,9.862 c 0.2505,0.042 0.503,0.08 0.757,0.113 0.0775,0.0105 0.1555,0.02 0.233,0.029 l 1.181,-9.93 c -0.1715,-0.021 -0.345,-0.0455 -0.515,-0.074 z m 1.035,0.123 -0.7055,9.975 c 0.0675,0.0045 0.135,0.009 0.2025,0.013 0.0025,0 0.005,5e-4 0.0075,5e-4 0.0025,0 0.005,0 0.008,5e-4 0.004,0 0.008,5e-4 0.0115,5e-4 0.0015,0 0.0025,0 0.004,0 0.0045,0 0.0085,5e-4 0.013,5e-4 5e-4,0 0.0015,0 0.0025,0 0.1595,0.0095 0.3195,0.017 0.48,0.0225 0.002,0 0.0025,0 0.0045,0 0.003,0 0.006,0 0.009,5e-4 0.003,0 0.0055,0 0.0085,0 0.002,0 0.004,0 0.0065,0 0.0035,0 0.0075,0 0.011,0 10e-4,0 0.0025,0 0.0035,0 0.005,0 0.009,0 0.014,5e-4 5e-4,0 10e-4,0 0.0015,0 0.0705,0.0025 0.141,0.0045 0.2115,0.006 l 0.232,-9.9975 c -0.175,-0.0015 -0.352,-0.0095 -0.5255,-0.022 z m 1.581,-5e-4 c -0.174,0.012 -0.351,0.021 -0.526,0.025 l 0.2385,9.997 c 0.094,-0.002 0.188,-0.005 0.282,-0.0085 0.0095,0 0.019,-5e-4 0.028,-10e-4 0.0015,0 0.002,0 0.0035,0 0.0045,0 0.009,0 0.013,-5e-4 0.0015,0 0.001,0 0.0025,0 0.005,0 0.01,-5e-4 0.015,-5e-4 h 5e-4 c 0.198,-0.008 0.3955,-0.0185 0.592,-0.032 5e-4,0 0,0 5e-4,0 0.0105,-5e-4 0.0205,-10e-4 0.0305,-0.002 5e-4,0 0,0 5e-4,0 0.005,-5e-4 0.01,-5e-4 0.015,-10e-4 h 0.001 c 0.0045,0 0.0095,-5e-4 0.0145,-10e-4 v 0 z m 1.0355,-0.1235 c -0.17,0.0285 -0.3435,0.0535 -0.515,0.074 l 1.186,9.9295 c 0.308,-0.0365 0.6135,-0.08 0.9165,-0.13 0,0 0,0 5e-4,0 0.0045,-10e-4 0.01,-0.0015 0.0145,-0.0025 10e-4,0 0.0025,-5e-4 0.0035,-5e-4 0.004,-5e-4 0.008,-10e-4 0.012,-0.002 0.0015,0 0.003,-5e-4 0.0045,-5e-4 0.004,-5e-4 0.0075,-10e-4 0.011,-0.002 0.0015,0 0.0035,-5e-4 0.0055,-5e-4 0.0035,-5e-4 0.007,-0.001 0.01,-0.0015 0.002,-5e-4 0.004,-5e-4 0.006,-0.001 0.0015,0 0.004,-5e-4 0.005,-10e-4 z m 1.0115,-0.221 c -0.166,0.0445 -0.3345,0.086 -0.5025,0.1225 l 2.134,9.77 c 0.037,-0.008 0.073,-0.016 0.11,-0.0245 5e-4,0 10e-4,0 0.0015,0 0.0045,-0.001 0.009,-0.002 0.0135,-0.003 0.0015,0 0.003,-5e-4 0.004,-0.001 0.0035,-5e-4 0.007,-0.0015 0.0105,-0.002 0.0025,-5e-4 0.005,-0.001 0.0075,-0.002 0.0025,-5e-4 0.005,-10e-4 0.0075,-0.0015 0.0035,-10e-4 0.0065,-0.0015 0.01,-0.0025 0.0015,0 0.003,-5e-4 0.0045,-0.001 0.004,-10e-4 0.008,-0.0015 0.0115,-0.0025 0.0015,0 0.002,-5e-4 0.0035,-5e-4 0.0045,-10e-4 0.009,-0.002 0.013,-0.003 5e-4,0 0.001,0 0.0015,-5e-4 0.0045,-0.001 0.0095,-0.002 0.014,-0.003 5e-4,0 0,0 10e-4,0 0.1265,-0.029 0.253,-0.0595 0.379,-0.091 h 5e-4 c 0.0045,-0.001 0.009,-0.002 0.013,-0.003 5e-4,0 0.0015,-5e-4 0.0025,-5e-4 0.004,-10e-4 0.0085,-0.002 0.0125,-0.003 0.001,-5e-4 0.0015,-5e-4 0.003,-5e-4 0.004,-10e-4 0.008,-0.002 0.012,-0.003 0.001,0 0.002,-5e-4 0.0035,-5e-4 0.004,-10e-4 0.008,-0.002 0.0115,-0.003 0.0015,-5e-4 0.002,-5e-4 0.0035,-10e-4 0.0035,-0.001 0.0075,-0.002 0.0115,-0.003 5e-4,0 0.003,-5e-4 0.0035,-0.001 0.004,-10e-4 0.008,-0.002 0.012,-0.003 5e-4,0 0.0025,-5e-4 0.003,-10e-4 0.004,-10e-4 0.008,-0.002 0.012,-0.003 10e-4,0 0.002,-5e-4 0.003,-5e-4 0.004,-10e-4 0.0085,-0.002 0.012,-0.003 0.0015,-5e-4 0.0015,-5e-4 0.003,-5e-4 0.004,-0.001 0.0085,-0.002 0.0125,-0.003 5e-4,0 0.002,-5e-4 0.0025,-5e-4 0.0045,-10e-4 0.009,-0.002 0.013,-0.0035 5e-4,0 10e-4,0 0.0015,-5e-4 0.0045,-0.001 0.009,-0.002 0.013,-0.0035 5e-4,0 10e-4,0 0.002,0 0.0045,-10e-4 0.0095,-0.0025 0.014,-0.0035 h 5e-4 c 0.065,-0.017 0.1305,-0.034 0.1955,-0.0515 z m 0.9835,-0.317 c -0.1605,0.0605 -0.3245,0.1175 -0.488,0.17 l 3.066,9.5185 c 0.154,-0.0495 0.3075,-0.101 0.4595,-0.154 5e-4,0 0,0 5e-4,0 0.004,-0.0015 0.0085,-0.003 0.013,-0.0045 5e-4,0 0.0025,-5e-4 0.003,-0.001 0.0035,-10e-4 0.0075,-0.0025 0.011,-0.004 0.001,-5e-4 0.003,-10e-4 0.004,-0.0015 0.0035,-10e-4 0.0065,-0.002 0.01,-0.0035 0.002,-5e-4 0.0045,-0.0015 0.0065,-0.002 0.0025,-0.001 0.005,-0.0015 0.0075,-0.0025 0.0025,-10e-4 0.0055,-0.002 0.008,-0.003 0.002,-5e-4 0.004,-10e-4 0.006,-0.002 0.004,-0.0015 0.007,-0.0025 0.0105,-0.004 10e-4,0 0.002,-5e-4 0.0035,-10e-4 0.0035,-0.0015 0.009,-0.003 0.0125,-0.0045 5e-4,0 0.001,0 0.0015,-5e-4 0.13,-0.046 0.258,-0.093 0.3865,-0.141 z m 0.95,-0.4105 c -0.1545,0.0755 -0.3125,0.1485 -0.4705,0.217 l 3.9695,9.178 c 0.1755,-0.0755 0.3495,-0.154 0.522,-0.2345 5e-4,0 10e-4,-5e-4 0.0015,-5e-4 0.004,-0.002 0.007,-0.0035 0.011,-0.0055 0.001,-5e-4 0.0025,-10e-4 0.0035,-0.0015 0.003,-0.0015 0.007,-0.003 0.01,-0.0045 0.0015,-5e-4 0.003,-0.0015 0.0045,-0.002 0.003,-0.0015 0.006,-0.0025 0.009,-0.004 0.002,-10e-4 0.004,-0.0015 0.0055,-0.0025 0.0025,-0.001 0.0055,-0.0025 0.008,-0.0035 0.0025,-10e-4 0.005,-0.002 0.007,-0.003 0.002,-10e-4 0.0035,-0.0015 0.005,-0.0025 0.0035,-0.0015 0.0065,-0.003 0.01,-0.0045 5e-4,0 0.0015,-0.001 0.0025,-0.001 0.103,-0.0485 0.2055,-0.098 0.3075,-0.148 z m 0.909,-0.502 c -0.147,0.0905 -0.298,0.1785 -0.449,0.262 l 4.834,8.754 c 0.03,-0.0165 0.0605,-0.0335 0.09,-0.05 5e-4,-5e-4 0.0015,-5e-4 0.002,-10e-4 0.004,-0.002 0.0075,-0.004 0.011,-0.006 10e-4,-5e-4 0.0015,-0.001 0.0025,-0.0015 0.0035,-0.002 0.0065,-0.0035 0.01,-0.0055 0.0015,-10e-4 0.003,-0.0015 0.0045,-0.0025 0.0025,-0.0015 0.0055,-0.003 0.008,-0.0045 0.0025,-0.0015 0.0045,-0.0025 0.0065,-0.0035 0.0015,-10e-4 0.004,-0.002 0.0055,-0.003 0.003,-0.0015 0.006,-0.0035 0.009,-0.005 10e-4,-5e-4 0.002,-0.001 0.003,-0.002 0.0035,-0.002 0.007,-0.0035 0.0105,-0.0055 5e-4,-5e-4 0.0025,-0.0015 0.003,-0.002 0.004,-0.002 0.0075,-0.004 0.0115,-0.0065 v 0 c 0.2315,-0.1305 0.46,-0.2655 0.686,-0.405 z m 0.86,-0.5895 c -0.138,0.1045 -0.2805,0.2075 -0.4235,0.305 l 5.65,8.2505 c 0.1265,-0.0865 0.252,-0.1745 0.3765,-0.264 0,0 0,0 5e-4,-5e-4 0.004,-0.003 0.008,-0.0055 0.012,-0.0085 5e-4,0 5e-4,-5e-4 0.001,-5e-4 0.0035,-0.0025 0.007,-0.005 0.011,-0.008 5e-4,-5e-4 0.0015,-10e-4 0.0025,-0.002 0.003,-0.002 0.007,-0.005 0.01,-0.0075 10e-4,-5e-4 0.002,-10e-4 0.003,-0.002 0.003,-0.0025 0.006,-0.004 0.009,-0.0065 0.0015,-10e-4 0.003,-0.002 0.0045,-0.0035 0.002,-0.0015 0.0055,-0.004 0.0075,-0.0055 0.002,-0.0015 0.004,-0.0025 0.0055,-0.004 0.002,-0.0015 0.0045,-0.003 0.0065,-0.0045 0.002,-0.0015 0.0045,-0.003 0.0065,-0.005 0.002,-0.0015 0.0035,-0.0025 0.006,-0.004 0.0025,-0.002 0.005,-0.0035 0.0075,-0.0055 0.001,-5e-4 0.003,-0.002 0.0045,-0.003 0.003,-0.002 0.006,-0.0045 0.009,-0.0065 10e-4,-5e-4 0.0025,-0.0015 0.0035,-0.0025 0.0035,-0.0025 0.007,-0.005 0.0105,-0.0075 5e-4,0 10e-4,-5e-4 0.0015,-0.001 0.004,-0.0025 0.0075,-0.0055 0.011,-0.0085 5e-4,0 0.001,-5e-4 0.0015,-10e-4 0.101,-0.0735 0.201,-0.148 0.3,-0.223 z m 0.8015,-0.6695 c -0.1275,0.1175 -0.26,0.2335 -0.393,0.3445 l 6.4115,7.674 c 0.002,-0.0015 0.0045,-0.0035 0.0065,-0.0055 5e-4,-5e-4 0.0015,-10e-4 0.002,-0.0015 0.003,-0.0025 0.0065,-0.0055 0.0095,-0.008 10e-4,-5e-4 0.002,-0.0015 0.003,-0.0025 0.003,-0.0025 0.006,-0.005 0.009,-0.0075 10e-4,-10e-4 0.002,-0.002 0.0035,-0.003 0.0025,-0.002 0.0055,-0.0045 0.008,-0.007 0.0015,-10e-4 0.0025,-0.002 0.004,-0.0035 0.0025,-0.002 0.0055,-0.0045 0.008,-0.0065 0.0015,-10e-4 0.0025,-0.0025 0.004,-0.0035 0.0025,-0.002 0.005,-0.004 0.0075,-0.0065 0.0015,-0.001 0.003,-0.0025 0.005,-0.004 0.0025,-0.002 0.004,-0.0035 0.007,-0.006 0.0015,-0.0015 0.0035,-0.003 0.0055,-0.0045 0.002,-0.0015 0.004,-0.003 0.006,-0.005 0.002,-0.0015 0.0045,-0.0035 0.0065,-0.0055 0.0015,-10e-4 0.004,-0.0035 0.0055,-0.0045 0.002,-0.002 0.004,-0.0035 0.0065,-0.0055 0.0015,-10e-4 0.0035,-0.003 0.005,-0.004 0.0025,-0.002 0.0045,-0.004 0.007,-0.006 0.0015,-0.0015 0.003,-0.003 0.005,-0.004 0.0025,-0.002 0.005,-0.004 0.0075,-0.0065 10e-4,-5e-4 0.0025,-0.0025 0.0035,-0.003 0.003,-0.0025 0.0055,-0.005 0.0085,-0.007 0.001,-0.001 0.002,-0.002 0.003,-0.003 0.003,-0.0025 0.006,-0.005 0.009,-0.0075 0.001,-5e-4 0.001,-0.001 0.002,-0.002 0.003,-0.0025 0.0065,-0.0055 0.01,-0.0085 0.001,-5e-4 0.001,-0.001 0.002,-0.002 0.0035,-0.0025 0.0065,-0.0055 0.01,-0.0085 l 0.001,-5e-4 c 0.0035,-0.003 0.0075,-0.0065 0.011,-0.0095 l 0.001,-0.001 c 0.166,-0.142 0.3295,-0.2865 0.4905,-0.4335 10e-4,-10e-4 10e-4,-10e-4 0.002,-0.002 0.003,-0.0025 0.006,-0.0055 0.0095,-0.0085 0.001,-5e-4 0.002,-0.002 0.003,-0.003 0.0025,-0.002 0.005,-0.0045 0.008,-0.007 0.0015,-10e-4 0.004,-0.0035 0.0055,-0.005 0.0015,-0.0015 0.0035,-0.0035 0.0055,-0.005 0.002,-0.002 0.0045,-0.0045 0.007,-0.0065 10e-4,-10e-4 0.0025,-0.002 0.0035,-0.0035 0.003,-0.0025 0.0065,-0.006 0.0095,-0.0085 5e-4,-5e-4 10e-4,-10e-4 0.0015,-10e-4 0.004,-0.0035 0.007,-0.0065 0.011,-0.0105 0,0 0,0 0,0 10e-4,-10e-4 0.002,-0.002 0.0035,-0.0035 z m 0.7355,-0.744 c -0.116,0.129 -0.2365,0.257 -0.3585,0.3805 l 7.1135,7.0285 c 10e-4,-10e-4 0.0015,-0.0015 0.0025,-0.0025 0.0025,-0.0025 0.0055,-0.0055 0.008,-0.008 0,0 10e-4,-10e-4 0.0015,-0.0015 0.1565,-0.159 0.311,-0.3205 0.463,-0.4845 0,-5e-4 5e-4,-10e-4 0.001,-0.0015 0.003,-0.003 0.006,-0.0065 0.009,-0.0095 10e-4,-10e-4 0.002,-0.002 0.003,-0.003 0.0025,-0.0025 0.005,-0.005 0.0075,-0.008 0.0015,-0.002 0.003,-0.0035 0.005,-0.0055 0.0015,-0.0015 0.0035,-0.0035 0.005,-0.0055 0.002,-0.002 0.0045,-0.005 0.007,-0.0075 0.001,-10e-4 0.002,-0.0025 0.003,-0.0035 0.003,-0.0035 0.006,-0.007 0.0095,-0.0105 0,0 5e-4,-5e-4 5e-4,-5e-4 0.0535,-0.0585 0.1075,-0.1175 0.1605,-0.177 z m 0.66,-0.8095 c -0.103,0.139 -0.2105,0.278 -0.3205,0.4125 l 7.7505,6.3185 c 10e-4,-0.001 0.0015,-0.002 0.0025,-0.003 0.002,-0.0025 0.0045,-0.0055 0.0065,-0.008 10e-4,-0.0015 0.0025,-0.0035 0.004,-0.005 0.002,-0.0025 0.004,-0.005 0.006,-0.0075 0.0015,-0.002 0.003,-0.0035 0.0045,-0.0055 0.0015,-0.002 0.0035,-0.0045 0.0055,-0.0065 0.0015,-0.002 0.0035,-0.0045 0.005,-0.0065 0.0015,-0.002 0.003,-0.0035 0.0045,-0.0055 0.002,-0.0025 0.0045,-0.0055 0.0065,-0.008 0.001,-10e-4 0.002,-0.0025 0.003,-0.004 0.0025,-0.003 0.005,-0.006 0.0075,-0.009 5e-4,-0.001 0.0015,-0.002 0.002,-0.0025 0.003,-0.0035 0.006,-0.007 0.0085,-0.0105 5e-4,-5e-4 5e-4,-0.001 0.001,-0.0015 0.003,-0.004 0.0055,-0.007 0.009,-0.011 0,0 5e-4,-5e-4 5e-4,-5e-4 0.1045,-0.13 0.2075,-0.2605 0.309,-0.3935 v 0 c 0.0025,-0.0035 0.006,-0.008 0.009,-0.0115 0,-5e-4 5e-4,-5e-4 5e-4,-10e-4 0.0025,-0.003 0.005,-0.0065 0.0075,-0.0095 5e-4,-0.001 0.0015,-0.002 0.0025,-0.003 0.002,-0.0025 0.0035,-0.005 0.0055,-0.008 0.0015,-0.0015 0.003,-0.0035 0.004,-0.005 10e-4,-0.0015 0.003,-0.004 0.004,-0.0055 0.0015,-0.0025 0.0035,-0.005 0.0055,-0.0075 5e-4,-10e-4 0.002,-0.0025 0.0025,-0.0035 0.0025,-0.003 0.005,-0.006 0.007,-0.0095 5e-4,-5e-4 5e-4,-5e-4 0.001,-0.001 0.0595,-0.0785 0.119,-0.1575 0.1775,-0.237 z m 0.578,-0.8665 c -0.089,0.148 -0.1825,0.296 -0.2785,0.4395 l 8.319,5.55 c 0.023,-0.035 0.0465,-0.07 0.0695,-0.105 0.002,-0.003 0.0045,-0.0065 0.0065,-0.01 0,-5e-4 10e-4,-0.002 0.0015,-0.0025 0.154,-0.2345 0.3035,-0.4725 0.4485,-0.7135 l 5e-4,-0.001 c 0.002,-0.0035 0.0045,-0.0075 0.0065,-0.011 5e-4,-5e-4 10e-4,-0.0015 10e-4,-0.002 z m 0.49,-0.914 c -0.0735,0.1555 -0.1525,0.311 -0.234,0.4625 l 8.8125,4.7265 c 0.0455,-0.085 0.091,-0.1705 0.1355,-0.2565 0.0715,-0.137 0.141,-0.2755 0.209,-0.4145 0,0 0,0 0,-5e-4 0.002,-0.004 0.004,-0.0085 0.0065,-0.0125 5e-4,-0.0015 0.0015,-0.003 0.002,-0.0045 0.0015,-0.003 0.003,-0.006 0.0045,-0.009 10e-4,-0.0025 0.002,-0.0045 0.0035,-0.007 5e-4,-0.0015 0.002,-0.004 0.003,-0.006 0.0015,-0.0035 0.0035,-0.007 0.005,-0.0105 5e-4,-10e-4 5e-4,-0.002 0.0015,-0.003 0.027,-0.056 0.054,-0.112 0.081,-0.1685 z m 0.399,-0.954 c -0.0585,0.161 -0.1215,0.323 -0.1875,0.4815 l 9.227,3.856 c 0.048,-0.115 0.095,-0.23 0.141,-0.346 0,-5e-4 0.001,-0.0025 0.001,-0.003 0.0015,-0.0035 0.003,-0.0075 0.0045,-0.011 5e-4,-0.002 10e-4,-0.003 0.002,-0.005 0.001,-0.003 0.0025,-0.006 0.0035,-0.0095 10e-4,-0.0025 0.002,-0.005 0.003,-0.0075 10e-4,-0.002 0.0015,-0.0045 0.0025,-0.007 0.0015,-0.0045 0.003,-0.0085 0.005,-0.0125 0,0 0,-5e-4 5e-4,-0.001 0.069,-0.1755 0.1355,-0.3515 0.2,-0.5295 z m 0.304,-0.9865 c -0.0425,0.166 -0.0895,0.3335 -0.14,0.497 l 9.556,2.9475 c 0.021,-0.069 0.042,-0.138 0.0625,-0.208 l 5e-4,-0.0015 c 10e-4,-0.004 0.0025,-0.0085 0.004,-0.0125 0,-5e-4 5e-4,-0.002 5e-4,-0.0025 10e-4,-0.004 0.002,-0.0075 0.003,-0.0115 5e-4,-10e-4 0.001,-0.003 0.001,-0.004 10e-4,-0.0035 0.002,-0.0075 0.0035,-0.011 0,-0.001 5e-4,-0.002 0.001,-0.0035 10e-4,-0.004 0.0025,-0.008 0.0035,-0.012 5e-4,-10e-4 5e-4,-0.002 0.001,-0.003 10e-4,-0.004 0.0025,-0.0085 0.0035,-0.012 0,-5e-4 5e-4,-0.002 5e-4,-0.0025 10e-4,-0.0045 0.0025,-0.0085 0.0035,-0.0125 0,-5e-4 5e-4,-0.002 5e-4,-0.0025 0.001,-0.0045 0.0025,-0.009 0.004,-0.013 0,-5e-4 0,-10e-4 5e-4,-0.0015 0.001,-0.0045 0.0025,-0.0095 0.004,-0.014 0,-5e-4 0,0 0,-10e-4 0.0015,-0.0045 0.0025,-0.0095 0.004,-0.014 v -5e-4 c 10e-4,-0.005 0.0025,-0.0095 0.004,-0.0145 v -10e-4 c 0.0575,-0.1995 0.1125,-0.401 0.1645,-0.603 z m 0.208,-1.0135 c -0.0265,0.17 -0.0575,0.3415 -0.092,0.51 l 9.7955,2.011 c 0.0585,-0.285 0.111,-0.572 0.158,-0.8605 0.0065,-0.0415 0.013,-0.0825 0.0195,-0.1235 z m 0.111,-1.037 c -0.0105,0.1735 -0.0245,0.349 -0.043,0.521 l 9.9435,1.0615 c 0.0125,-0.1175 0.024,-0.234 0.0345,-0.352 0,-5e-4 0,-5e-4 0,-0.001 5e-4,-0.005 5e-4,-0.0085 10e-4,-0.013 0,-10e-4 0,-0.0025 0,-0.004 5e-4,-0.004 5e-4,-0.0065 10e-4,-0.0105 0,-0.002 0,-0.004 5e-4,-0.0055 0,-0.003 5e-4,-0.004 5e-4,-0.0065 0.0165,-0.19 0.0305,-0.3805 0.042,-0.572 5e-4,-0.0105 0.001,-0.021 0.0015,-0.0315 z m 10.0055,-1.4135 -9.9935,0.357 c 0.0045,0.1335 0.007,0.2675 0.007,0.402 l -5e-4,0.128 9.9995,0.1135 c 5e-4,-0.065 10e-4,-0.1305 0.0015,-0.1955 0,-5e-4 0,-0.0015 0,-0.002 0,-0.004 0,-0.0085 0,-0.0125 0,-0.0025 0,-0.004 0,-0.007 0,-0.003 0,-0.0055 0,-0.0085 0,-0.0055 0,-0.0105 0,-0.016 v 0 0 c 0,-0.007 0,-0.014 0,-0.021 0,-0.002 0,-0.004 0,-0.006 0,-0.0055 0,-0.011 0,-0.0165 0,-0.0015 0,-0.004 0,-0.0055 0,-0.007 0,-0.0135 0,-0.0205 0,-0.002 0,-0.0045 0,-0.007 0,-0.0045 0,-0.0095 0,-0.014 0,-0.0025 0,-0.0055 0,-0.0085 0,-0.0055 0,-0.011 0,-0.017 0,-0.0025 0,-0.0065 0,-0.0095 0,-0.0045 0,-0.009 0,-0.0135 0,-0.0025 0,-0.007 0,-0.01 0,-0.0035 0,-0.007 0,-0.0105 0,-0.007 0,-0.013 0,-0.02 0,-0.0025 0,-0.005 0,-0.0075 0,-0.0045 0,-0.0085 0,-0.013 0,-0.002 0,-0.0045 0,-0.007 0,-0.0145 0,-0.0305 -5e-4,-0.045 0,-0.001 0,-0.002 0,-0.003 0,-0.0055 0,-0.01 0,-0.0155 0,-5e-4 0,-10e-4 0,-0.002 -10e-4,-0.0725 -0.002,-0.1445 -0.004,-0.2165 0,0 0,-5e-4 0,-5e-4 0,-0.0155 -5e-4,-0.0305 -10e-4,-0.046 0,-0.002 0,-0.004 0,-0.006 0,-0.004 0,-0.008 0,-0.012 0,-0.003 0,-0.006 0,-0.009 0,-0.004 0,-0.009 -5e-4,-0.013 0,-0.0055 0,-0.011 -5e-4,-0.017 0,-0.002 0,-0.0045 0,-0.0065 0,-0.006 -5e-4,-0.0115 -5e-4,-0.0175 0,-5e-4 0,-0.0025 0,-0.003 -0.004,-0.0455 -0.0055,-0.0925 -0.007,-0.1395 z m -0.1665,-1.9925 -9.9145,1.3055 c 0.0225,0.1715 0.0415,0.346 0.056,0.5195 l 9.9655,-0.831 c -0.0065,-0.078 -0.0135,-0.156 -0.021,-0.234 0,-5e-4 0,0 0,0 -5e-4,-0.005 -10e-4,-0.0095 -0.0015,-0.014 0,-0.0015 0,-0.0025 0,-0.004 -5e-4,-0.0035 -5e-4,-0.0075 -10e-4,-0.011 0,-0.002 0,-0.004 -5e-4,-0.0065 0,-0.003 -5e-4,-0.006 -10e-4,-0.009 0,-0.0035 -5e-4,-0.007 -10e-4,-0.0105 0,-0.0015 0,-0.0035 -5e-4,-0.005 -5e-4,-0.0055 -10e-4,-0.01 -0.0015,-0.015 0,0 0,0 0,0 -0.0225,-0.23 -0.049,-0.4575 -0.079,-0.685 z m -0.356,-1.967 -9.743,2.252 c 0.039,0.1675 0.074,0.338 0.1045,0.5075 l 9.8405,-1.78 c -0.029,-0.159 -0.0595,-0.3175 -0.092,-0.475 v -0.002 c -5e-4,-0.0035 -0.0015,-0.0075 -0.0025,-0.011 0,-0.002 -5e-4,-0.003 -10e-4,-0.005 -5e-4,-0.003 -10e-4,-0.0065 -0.002,-0.0095 -5e-4,-0.0025 -5e-4,-0.004 -10e-4,-0.0065 -5e-4,-0.0025 -10e-4,-0.005 -0.0015,-0.008 -5e-4,-0.003 -10e-4,-0.0055 -0.0015,-0.008 -5e-4,-0.0025 -10e-4,-0.005 -0.0015,-0.0075 -5e-4,-0.0035 -10e-4,-0.0055 -0.002,-0.009 0,-0.002 -5e-4,-0.004 -10e-4,-0.006 -5e-4,-0.003 -0.0015,-0.007 -0.002,-0.0105 -5e-4,-0.0015 -5e-4,-0.0035 -10e-4,-0.005 -5e-4,-0.004 -0.0015,-0.0075 -0.002,-0.0115 -5e-4,-10e-4 -5e-4,-0.0025 -10e-4,-0.0035 -5e-4,-0.004 -0.0015,-0.008 -0.0025,-0.012 0,-0.0015 -5e-4,-0.0025 -5e-4,-0.004 -10e-4,-0.004 -0.002,-0.009 -0.0025,-0.0125 0,-5e-4 -5e-4,-0.0015 -5e-4,-0.002 -10e-4,-0.0045 -0.002,-0.009 -0.003,-0.0135 0,-5e-4 0,-0.0015 -5e-4,-0.002 -10e-4,-0.0045 -0.002,-0.0095 -0.003,-0.014 0,0 0,-5e-4 -5e-4,-0.001 -0.001,-0.0055 -0.002,-0.0095 -0.003,-0.0145 0,0 0,-5e-4 0,-10e-4 -0.0115,-0.0525 -0.023,-0.105 -0.0345,-0.1575 0,-5e-4 0,-0.0015 -5e-4,-0.002 -10e-4,-0.0045 -0.0015,-0.0085 -0.0025,-0.013 -10e-4,-0.0045 -0.002,-0.009 -0.003,-0.013 0,-5e-4 0,-10e-4 -5e-4,-0.0015 -10e-4,-0.0045 -0.002,-0.009 -0.003,-0.013 0,-5e-4 0,-0.002 -5e-4,-0.0025 -0.0105,-0.042 -0.02,-0.0825 -0.0295,-0.1225 z m -0.5435,-1.924 -9.48,3.1815 c 0.0545,0.1625 0.106,0.3285 0.1525,0.4935 l 9.623,-2.72 c 0,-10e-4 -5e-4,-0.002 -10e-4,-0.0035 -5e-4,-0.0025 -0.001,-0.005 -0.002,-0.007 -5e-4,-0.0025 -0.0015,-0.0065 -0.0025,-0.009 -5e-4,-0.002 -10e-4,-0.0035 -0.0015,-0.0055 -10e-4,-0.004 -0.002,-0.0075 -0.003,-0.011 0,-10e-4 -5e-4,-0.002 -5e-4,-0.003 -0.0015,-0.0045 -0.0025,-0.0095 -0.004,-0.014 0,0 0,0 0,0 -0.0705,-0.246 -0.145,-0.4905 -0.224,-0.7325 -5e-4,-0.0015 -10e-4,-0.003 -0.0015,-0.0045 -5e-4,-0.002 -0.0015,-0.005 -0.002,-0.007 -0.001,-0.003 -0.002,-0.006 -0.003,-0.009 0,-5e-4 -5e-4,-10e-4 -5e-4,-0.002 -0.0175,-0.0495 -0.034,-0.098 -0.05,-0.147 z m -0.727,-1.8625 -9.1295,4.081 c 0.07,0.157 0.1375,0.3175 0.1995,0.4775 l 9.3155,-3.6355 c -0.121,-0.3115 -0.25,-0.619 -0.3855,-0.923 z m -0.903,-1.784 -8.695,4.9395 c 0.085,0.15 0.1675,0.3035 0.2455,0.4575 l 8.922,-4.516 c -0.132,-0.2605 -0.269,-0.518 -0.4115,-0.772 v -5e-4 c -0.0025,-0.0045 -0.005,-0.0085 -0.0075,-0.013 -5e-4,-5e-4 0,0 -5e-4,-5e-4 -0.002,-0.004 -0.0045,-0.0085 -0.007,-0.0125 0,-5e-4 -5e-4,-0.0015 -10e-4,-0.002 -0.002,-0.0035 -0.0045,-0.0075 -0.0065,-0.0115 -5e-4,-10e-4 -5e-4,-0.0015 -0.0015,-0.0025 -0.002,-0.0035 -0.004,-0.0065 -0.0055,-0.01 -5e-4,-0.001 -0.002,-0.004 -0.003,-0.005 -0.0015,-0.0025 -0.003,-0.0055 -0.005,-0.0085 -10e-4,-0.002 -0.002,-0.0035 -0.003,-0.006 -0.0015,-0.002 -0.0025,-0.0045 -0.004,-0.007 -10e-4,-0.002 -0.003,-0.0055 -0.004,-0.0075 -0.001,-0.002 -0.0025,-0.004 -0.0035,-0.006 -0.002,-0.0035 -0.0035,-0.0065 -0.0055,-0.01 -5e-4,-10e-4 -0.001,-0.002 -0.0015,-0.003 -5e-4,-0.0015 -0.001,-0.002 -0.002,-0.0035 z m -1.0695,-1.6885 -8.182,5.7495 c 0.0995,0.1415 0.197,0.2875 0.2895,0.4335 l 8.448,-5.351 c -0.0215,-0.034 -0.043,-0.0675 -0.0645,-0.1015 -0.0015,-0.002 -0.002,-0.0035 -0.0035,-0.0055 -5e-4,-0.001 -0.0015,-0.0025 -0.0025,-0.004 -0.002,-0.003 -0.0045,-0.0065 -0.0065,-0.01 0,0 -5e-4,-5e-4 -5e-4,-5e-4 -0.107,-0.1665 -0.217,-0.3315 -0.3285,-0.495 -10e-4,-0.0015 -0.002,-0.003 -0.003,-0.0045 -0.002,-0.0025 -0.0035,-0.005 -0.0055,-0.0075 -0.0015,-0.0025 -0.0035,-0.0055 -0.0055,-0.0085 -5e-4,-10e-4 -0.0015,-0.002 -0.0025,-0.003 -0.044,-0.065 -0.0885,-0.1285 -0.133,-0.192 z m -1.226,-1.579 -7.5965,6.5035 c 0.113,0.132 0.224,0.268 0.3305,0.405 l 7.8975,-6.1335 c -0.019,-0.0245 -0.0385,-0.0495 -0.0575,-0.074 v 0 c -0.003,-0.004 -0.006,-0.0075 -0.0095,-0.0115 0,-5e-4 -5e-4,-0.001 -10e-4,-0.0015 -0.0025,-0.0035 -0.0055,-0.007 -0.008,-0.0105 -5e-4,-0.001 -0.002,-0.0025 -0.0025,-0.0035 -0.002,-0.0025 -0.0045,-0.0055 -0.0065,-0.0085 -10e-4,-0.0015 -0.002,-0.003 -0.0035,-0.0045 -0.002,-0.0025 -0.004,-0.005 -0.006,-0.0075 -0.0015,-0.002 -0.003,-0.004 -0.0045,-0.006 -0.0015,-0.002 -0.003,-0.004 -0.0045,-0.006 -0.0015,-0.002 -0.0035,-0.0045 -0.0055,-0.0065 -0.001,-0.0015 -0.0025,-0.0035 -0.004,-0.0055 -0.002,-0.0025 -0.004,-0.005 -0.006,-0.008 -10e-4,-10e-4 -0.002,-0.0025 -0.003,-0.004 -0.0025,-0.003 -0.0045,-0.0055 -0.007,-0.0085 -10e-4,-0.001 -0.0015,-0.0025 -0.0025,-0.0035 -0.0025,-0.003 -0.005,-0.006 -0.0075,-0.0095 -5e-4,-5e-4 -0.001,-0.0015 -0.002,-0.0025 -0.0025,-0.003 -0.0055,-0.007 -0.008,-0.01 -5e-4,-5e-4 -10e-4,-0.0015 -0.0015,-0.002 -0.003,-0.0035 -0.006,-0.007 -0.0085,-0.0105 0,0 -5e-4,-5e-4 -10e-4,-0.001 -0.003,-0.004 -0.0055,-0.007 -0.009,-0.011 0,-5e-4 -5e-4,-10e-4 -10e-4,-10e-4 -0.003,-0.0035 -0.0055,-0.0075 -0.0085,-0.0105 -5e-4,-5e-4 -10e-4,-0.001 -0.0015,-0.0015 -0.0025,-0.0035 -0.0055,-0.007 -0.0085,-0.0105 -5e-4,-5e-4 -10e-4,-0.001 -10e-4,-0.0015 -0.0035,-0.004 -0.0055,-0.007 -0.009,-0.011 -5e-4,0 -5e-4,-5e-4 -0.001,-0.001 -0.003,-0.0035 -0.006,-0.0075 -0.0085,-0.011 -5e-4,-5e-4 -10e-4,-0.001 -0.0015,-0.0015 -0.0025,-0.0035 -0.0055,-0.007 -0.0085,-0.0105 -5e-4,-5e-4 -0.001,-0.001 -0.0015,-0.002 -0.0025,-0.003 -0.0055,-0.007 -0.008,-0.01 -5e-4,-0.001 -10e-4,-0.0015 -0.002,-0.0025 -0.0025,-0.003 -0.0055,-0.007 -0.008,-0.01 -5e-4,-5e-4 -10e-4,-0.0015 -0.0015,-0.002 -0.0025,-0.003 -0.005,-0.0065 -0.008,-0.0095 -5e-4,-10e-4 -0.0015,-0.002 -0.002,-0.003 -0.0025,-0.003 -0.005,-0.006 -0.0075,-0.009 -0.001,-10e-4 -0.0015,-0.002 -0.0025,-0.0035 -0.002,-0.0025 -0.0045,-0.0055 -0.007,-0.0085 -10e-4,-0.001 -0.002,-0.0025 -0.003,-0.004 -0.002,-0.0025 -0.0045,-0.0055 -0.0065,-0.0085 -10e-4,-10e-4 -0.002,-0.0025 -0.0035,-0.004 -0.002,-0.0025 -0.004,-0.0055 -0.0065,-0.008 -10e-4,-0.0015 -0.0025,-0.003 -0.0035,-0.0045 -0.002,-0.0025 -0.004,-0.005 -0.006,-0.0075 -0.0015,-0.0015 -0.0025,-0.0035 -0.004,-0.005 -0.002,-0.0025 -0.0035,-0.0045 -0.0055,-0.007 -0.0015,-0.002 -0.003,-0.0035 -0.0045,-0.0055 -0.002,-0.0025 -0.003,-0.004 -0.0055,-0.0065 -0.0015,-0.002 -0.003,-0.004 -0.0045,-0.006 -0.001,-0.0015 -0.0035,-0.0045 -0.005,-0.006 -0.0015,-0.002 -0.0035,-0.0045 -0.005,-0.0065 -10e-4,-0.0015 -0.003,-0.0035 -0.0045,-0.0055 -0.002,-0.002 -0.004,-0.0045 -0.0055,-0.007 -0.0015,-0.0015 -0.003,-0.003 -0.004,-0.005 -0.002,-0.0025 -0.004,-0.005 -0.006,-0.0075 -0.001,-0.0015 -0.002,-0.0025 -0.0035,-0.004 -0.002,-0.003 -0.0045,-0.0055 -0.007,-0.0085 -5e-4,-0.001 -0.0015,-0.002 -0.0025,-0.003 -0.0025,-0.003 -0.005,-0.0065 -0.0075,-0.0095 -0.001,-0.001 -0.0015,-0.0015 -0.002,-0.0025 -0.0025,-0.003 -0.0055,-0.0065 -0.008,-0.01 -5e-4,-5e-4 -10e-4,-0.001 -0.0015,-0.0015 -0.0025,-0.0035 -0.0055,-0.007 -0.0085,-0.0105 -10e-4,-0.001 -10e-4,-0.001 -0.002,-0.002 -0.0025,-0.003 -0.0055,-0.0065 -0.008,-0.01 -0.001,-0.001 -0.001,-0.001 -0.0015,-0.002 -0.003,-0.003 -0.0055,-0.0065 -0.0085,-0.01 -5e-4,-5e-4 -10e-4,-0.001 -0.0015,-0.0015 -0.0025,-0.0035 -0.0055,-0.007 -0.0085,-0.0105 -5e-4,-5e-4 -10e-4,-10e-4 -0.0015,-0.0015 -0.003,-0.0035 -0.006,-0.007 -0.0085,-0.0105 -5e-4,-10e-4 -5e-4,-10e-4 -0.0015,-0.002 -0.0025,-0.0035 -0.0055,-0.007 -0.0085,-0.0105 -5e-4,-5e-4 -0.001,-0.001 -0.0015,-0.0015 -0.003,-0.0035 -0.0055,-0.007 -0.0085,-0.01 -5e-4,-0.001 -5e-4,-0.001 -0.0015,-0.002 -0.0025,-0.0035 -0.0055,-0.0065 -0.0085,-0.01 -5e-4,-0.001 -5e-4,-5e-4 -0.0015,-0.002 -0.003,-0.003 -0.0055,-0.0065 -0.0085,-0.01 -0.001,-0.001 -0.0015,-0.0015 -0.002,-0.0025 -0.0025,-0.003 -0.005,-0.006 -0.0075,-0.009 -10e-4,-10e-4 -0.002,-0.002 -0.0025,-0.003 -0.0025,-0.003 -0.005,-0.006 -0.0075,-0.009 -10e-4,-0.0015 -0.0015,-0.002 -0.003,-0.0035 -0.002,-0.0025 -0.0045,-0.0055 -0.007,-0.008 -5e-4,-0.001 -0.002,-0.0025 -0.003,-0.0035 -0.002,-0.003 -0.0045,-0.0055 -0.007,-0.0085 -10e-4,-0.0015 -0.002,-0.0025 -0.0035,-0.004 -0.002,-0.0025 -0.0045,-0.005 -0.0065,-0.0075 -10e-4,-0.0015 -0.003,-0.0035 -0.004,-0.005 -0.002,-0.002 -0.0035,-0.0045 -0.0055,-0.0065 -0.0015,-0.002 -0.0035,-0.004 -0.005,-0.006 -0.0015,-0.002 -0.003,-0.0035 -0.0045,-0.0055 -0.002,-0.0025 -0.004,-0.0045 -0.006,-0.007 -0.0015,-0.0015 -0.0025,-0.003 -0.004,-0.0045 -0.0025,-0.003 -0.005,-0.006 -0.0075,-0.009 -5e-4,-5e-4 -0.0015,-0.0015 -0.002,-0.0025 -0.0025,-0.003 -0.006,-0.007 -0.0085,-0.01 -5e-4,-5e-4 -0.001,-0.001 -0.0015,-0.0015 -0.022,-0.024 -0.043,-0.0485 -0.064,-0.0735 z m -1.3715,-1.455 -6.942,7.1975 c 0.125,0.1205 0.249,0.2455 0.3675,0.372 l 7.2775,-6.8585 c 0,-5e-4 -5e-4,-5e-4 -10e-4,-10e-4 -0.2285,-0.2425 -0.4625,-0.479 -0.702,-0.71 z m -1.5035,-1.318 -6.225,7.8265 c 0.1355,0.108 0.271,0.2205 0.401,0.335 l 6.5915,-7.5205 c -0.039,-0.034 -0.078,-0.068 -0.117,-0.102 -0.0015,-0.001 -0.002,-0.0015 -0.0035,-0.0025 -0.0025,-0.0025 -0.005,-0.0045 -0.008,-0.007 -0.0025,-0.002 -0.0045,-0.004 -0.007,-0.006 -0.0015,-0.001 -0.0025,-0.0025 -0.004,-0.0035 -0.206,-0.1775 -0.4155,-0.3505 -0.628,-0.52 z m -1.6225,-1.168 -5.4485,8.3855 c 0.145,0.094 0.2895,0.193 0.43,0.294 l 5.8435,-8.115 c -0.0755,-0.0545 -0.152,-0.1085 -0.2285,-0.162 -5e-4,0 -5e-4,0 -10e-4,-5e-4 -0.0025,-0.0015 -0.0055,-0.0035 -0.008,-0.0055 -0.0015,-10e-4 -0.0035,-0.0025 -0.0055,-0.0035 -10e-4,-0.001 -0.0025,-0.002 -0.0035,-0.0025 -0.003,-0.002 -0.006,-0.0045 -0.0095,-0.0065 0,0 0,0 -5e-4,0 -0.0855,-0.06 -0.171,-0.1185 -0.258,-0.177 -5e-4,-0.0015 -10e-4,-0.002 -0.0025,-0.003 -0.003,-0.002 -0.006,-0.004 -0.0095,-0.0065 -0.002,-0.0015 -0.004,-0.0025 -0.006,-0.004 -0.002,-0.0015 -0.0045,-0.003 -0.0065,-0.0045 -0.003,-0.002 -0.006,-0.004 -0.0095,-0.0065 -10e-4,-5e-4 -0.002,-0.0015 -0.0035,-0.002 -0.09,-0.0605 -0.1815,-0.121 -0.273,-0.1805 z m -1.727,-1.008 -4.6195,8.869 c 0.153,0.0795 0.3055,0.164 0.4545,0.251 l 5.0405,-8.6365 c -0.072,-0.042 -0.144,-0.0835 -0.2165,-0.1245 v 0 c -0.009,-0.005 -0.018,-0.01 -0.027,-0.015 v 0 c -0.009,-0.005 -0.018,-0.01 -0.027,-0.015 v 0 c -0.2,-0.1135 -0.4015,-0.2225 -0.605,-0.329 z m -1.8155,-0.8365 -3.744,9.2725 c 0.159,0.0645 0.319,0.1335 0.475,0.2055 l 4.187,-9.0815 c -0.0015,-5e-4 -0.0045,-0.002 -0.0065,-0.003 -0.002,-10e-4 -0.0045,-0.002 -0.0065,-0.003 -0.002,-5e-4 -0.005,-0.002 -0.007,-0.003 -0.0025,-10e-4 -0.005,-0.002 -0.008,-0.0035 -0.0015,-0.001 -0.0045,-0.002 -0.0065,-0.003 -0.0025,-10e-4 -0.005,-0.0025 -0.008,-0.0035 -0.0025,-0.001 -0.0045,-0.002 -0.007,-0.003 -0.0025,-0.001 -0.0045,-0.002 -0.007,-0.003 -0.0025,-0.001 -0.0055,-0.0025 -0.008,-0.0035 -10e-4,-0.002 -0.0035,-0.0025 -0.0055,-0.0035 -0.002,-10e-4 -0.004,-0.002 -0.0065,-0.003 -0.0025,-10e-4 -0.0055,-0.0025 -0.008,-0.0035 -0.002,-0.001 -0.004,-0.002 -0.0055,-0.0025 -0.003,-10e-4 -0.006,-0.0025 -0.0085,-0.004 -0.0025,-0.001 -0.005,-0.002 -0.0075,-0.003 -0.0025,-0.001 -0.0045,-0.002 -0.007,-0.003 -0.0025,-0.001 -0.0045,-0.002 -0.007,-0.003 -0.0025,-0.001 -0.005,-0.0025 -0.0075,-0.0035 -10e-4,-5e-4 -0.002,-0.001 -0.003,-0.0015 -0.0035,-0.0015 -0.0075,-0.0035 -0.011,-0.005 -0.002,-10e-4 -0.004,-0.0015 -0.0065,-0.003 -0.0025,-10e-4 -0.005,-0.002 -0.0075,-0.0035 -0.252,-0.114 -0.5055,-0.2225 -0.7625,-0.326 z m -1.8875,-0.6585 -2.832,9.5905 c 0.1645,0.0485 0.33,0.102 0.4915,0.158 L 48.55875,22 c -0.221,-0.077 -0.4435,-0.1505 -0.668,-0.22 -5e-4,0 -10e-4,-5e-4 -0.0015,-5e-4 -0.0045,-10e-4 -0.009,-0.0025 -0.0135,-0.004 -10e-4,0 -0.0025,-5e-4 -0.0035,-0.001 -0.0035,-0.001 -0.0075,-0.0025 -0.011,-0.0035 -0.002,-5e-4 -0.004,-0.001 -0.0065,-0.002 -0.0025,-5e-4 -0.006,-0.0015 -0.0085,-0.0025 -0.0035,-0.001 -0.0075,-0.002 -0.0105,-0.003 -0.0015,-5e-4 -0.0025,-5e-4 -0.0035,-0.001 -0.0045,-10e-4 -0.009,-0.0025 -0.0135,-0.004 -5e-4,0 -5e-4,0 -0.0015,0 -0.07,-0.0225 -0.14,-0.0435 -0.21,-0.0645 z m -1.9425,-0.473 -1.894,9.819 c 0.1685,0.0325 0.339,0.0695 0.5055,0.11 l 2.365,-9.7165 c -5e-4,0 -0.0015,0 -0.002,-5e-4 -0.003,-5e-4 -0.006,-0.0015 -0.0095,-0.002 -0.002,-5e-4 -0.0045,-0.001 -0.0065,-0.0015 -0.003,-5e-4 -0.0055,-0.0015 -0.0085,-0.002 -0.0025,-5e-4 -0.0055,-10e-4 -0.008,-0.002 -0.002,-5e-4 -0.0045,-0.001 -0.0065,-0.0015 -0.0025,-5e-4 -0.007,-0.0015 -0.0095,-0.002 -0.0015,-5e-4 -0.0035,-0.001 -0.0055,-0.0015 -0.004,-0.001 -0.0065,-0.0015 -0.0105,-0.0025 -0.0015,-5e-4 -0.003,-5e-4 -0.0045,-10e-4 -0.004,-0.001 -0.0075,-0.0015 -0.0115,-0.0025 -0.001,0 -0.0025,-5e-4 -0.0035,-0.001 -0.0045,-10e-4 -0.009,-0.002 -0.0135,-0.003 -5e-4,0 -5e-4,0 -10e-4,0 -0.0055,-10e-4 -0.01,-0.0025 -0.015,-0.0035 0,0 -5e-4,0 -5e-4,0 -0.1365,-0.033 -0.273,-0.064 -0.41,-0.094 0,0 0,0 -5e-4,0 -0.0105,-0.002 -0.02,-0.0045 -0.0305,-0.0065 -5e-4,0 -10e-4,0 -0.0015,0 -0.005,-0.001 -0.009,-0.002 -0.0145,-0.003 -5e-4,0 -10e-4,0 -10e-4,0 -0.0045,-0.001 -0.009,-0.002 -0.0135,-0.003 -10e-4,0 -0.002,0 -0.003,-5e-4 -0.0045,-0.001 -0.008,-0.0015 -0.0125,-0.0025 -10e-4,0 -0.002,-5e-4 -0.003,-5e-4 -0.004,-5e-4 -0.0065,-0.0015 -0.0105,-0.002 -0.002,-5e-4 -0.004,-5e-4 -0.006,-0.001 -0.002,-5e-4 -0.0055,-0.001 -0.008,-0.0015 -0.0025,-5e-4 -0.0055,-0.001 -0.008,-0.0015 -0.002,0 -0.0025,-5e-4 -0.0045,-0.001 -0.1105,-0.025 -0.222,-0.0475 -0.3335,-0.069 z m -1.979,-0.284 -0.945,9.9555 c 0.1725,0.0165 0.347,0.037 0.518,0.0615 l 1.42,-9.8985 c -0.084,-0.012 -0.167,-0.0235 -0.251,-0.0345 v 0 c -0.0045,-5e-4 -0.01,-0.001 -0.0145,-0.002 -0.0015,0 -0.0035,-5e-4 -0.005,-5e-4 -0.004,-5e-4 -0.008,-0.001 -0.011,-0.0015 -0.002,0 -0.0045,-5e-4 -0.007,-0.001 -0.0025,0 -0.005,-5e-4 -0.008,-10e-4 -0.003,-5e-4 -0.0065,-5e-4 -0.0095,-0.001 -0.002,0 -0.0035,-5e-4 -0.0055,-5e-4 -0.004,-5e-4 -0.0075,-0.001 -0.011,-0.0015 -0.0015,0 -0.002,0 -0.0035,0 -0.004,-5e-4 -0.0085,-0.001 -0.013,-0.0015 -5e-4,0 -0.001,0 -0.002,0 -0.005,-5e-4 -0.0095,-0.001 -0.0145,-0.002 v 0 c -0.149,-0.019 -0.2985,-0.036 -0.4485,-0.0515 h -0.0015 c -0.0035,0 -0.0065,-5e-4 -0.01,-0.001 -0.002,0 -0.0045,-5e-4 -0.0065,-5e-4 -0.0025,0 -0.0045,-5e-4 -0.007,-5e-4 -0.0025,0 -0.007,-5e-4 -0.0095,-10e-4 -0.0015,0 -0.003,0 -0.005,-5e-4 -0.004,-5e-4 -0.008,-5e-4 -0.012,-10e-4 -5e-4,0 -0.0015,0 -0.0025,0 -0.045,-0.0065 -0.0905,-0.011 -0.135,-0.0155 z m -1.996,-0.094 v 10 c 0.176,0 0.3535,0.004 0.528,0.0125 l 0.4705,-9.989 c -0.2015,-0.0095 -0.404,-0.016 -0.607,-0.02 v 0 c -0.0045,0 -0.0095,0 -0.0135,0 -5e-4,0 -0.002,0 -0.003,0 -0.004,0 -0.0085,0 -0.0125,0 -0.0015,0 -0.002,0 -0.0035,0 -0.004,0 -0.008,0 -0.012,0 -0.0015,0 -0.0025,0 -0.004,0 -0.004,0 -0.008,0 -0.0115,0 -0.0015,0 -0.0035,0 -0.005,0 -0.0035,0 -0.0075,0 -0.011,0 -0.002,0 -0.003,0 -0.005,0 -0.004,0 -0.0075,0 -0.0115,0 -0.0015,0 -0.0025,0 -0.004,0 -0.004,0 -0.008,0 -0.0115,0 -10e-4,0 -0.003,0 -0.0045,0 -0.004,0 -0.008,0 -0.0115,0 -0.001,0 -0.003,0 -0.0045,0 -0.0035,0 -0.0075,0 -0.011,0 -0.002,0 -0.004,0 -0.006,0 -0.0035,0 -0.007,0 -0.01,0 -5e-4,0 -0.0015,0 -0.002,0 -0.008,0 -0.016,0 -0.024,0 -0.0015,0 -0.004,0 -0.0055,0 -0.003,0 -0.0055,0 -0.0085,0 -0.002,0 -0.006,0 -0.008,0 -0.0025,0 -0.005,0 -0.0075,0 -0.0025,0 -0.006,0 -0.0085,0 -0.0025,0 -0.005,0 -0.0075,0 -0.003,0 -0.006,0 -0.009,0 -0.0025,0 -0.005,0 -0.0075,0 -0.003,0 -0.006,0 -0.0085,0 -0.0025,0 -0.005,0 -0.008,0 -0.003,0 -0.0065,0 -0.0095,0 -0.002,0 -0.0045,0 -0.0065,0 -0.0025,0 -0.007,0 -0.0095,0 -0.0025,0 -0.0045,0 -0.007,0 -0.0025,0 -0.0065,0 -0.0095,0 -0.0025,0 -0.0045,0 -0.007,0 -0.0035,0 -0.0055,0 -0.0095,0 -0.002,0 -0.0045,0 -0.007,0 -0.0035,0 -0.006,0 -0.0095,0 -0.002,0 -0.0045,0 -0.007,0 -0.0035,0 -0.0065,0 -0.01,0 -0.002,0 -0.004,0 -0.006,0 -0.004,0 -0.0075,0 -0.0115,0 -0.0015,0 -0.003,0 -0.005,0 -0.006,-0.0035 -0.0115,-0.0035 -0.017,-0.0035 z"
   id="path16801"
   style="stroke-width:0.5" />
	</g>
	<g
   id="g16807">
		<path
   fill="#D9D9D9"
   d="M41.685,2c21.891,0,39.7,17.811,39.7,39.703c0,21.88-17.809,39.681-39.7,39.681    C19.803,81.384,2,63.583,2,41.703C2,19.811,19.803,2,41.685,2 M41.685,0C18.662,0,0,18.663,0,41.703    c0,23.02,18.662,41.681,41.685,41.681c23.036,0,41.7-18.661,41.7-41.681C83.385,18.663,64.721,0,41.685,0L41.685,0z"
   id="path16805"
   style="fill:#000000" />
	</g>
	<g
   opacity="0.06"
   id="g16811">
		<path
   d="M77.707,41.703c0,19.876-16.126,36.003-36.021,36.003c-19.879,0-36.006-16.127-36.006-36.003    c0-19.898,16.127-36.025,36.006-36.025C61.58,5.678,77.707,21.805,77.707,41.703z"
   id="path16809"
   style="fill:#cccccc" />
	</g>
	<g
   id="g16817">
		<path
   fill="#DEDEDE"
   d="M41.685,69.832c-15.508,0-28.124-12.618-28.124-28.128c0-15.506,12.616-28.121,28.124-28.121    c15.51,0,28.127,12.615,28.127,28.121C69.813,57.213,57.195,69.832,41.685,69.832z"
   id="path16813"
   style="fill:#999999" />
		<path
   fill="#E5E5E5"
   d="M41.685,16.582c13.855,0,25.127,11.269,25.127,25.121c0,13.856-11.272,25.128-25.127,25.128    c-13.854,0-25.124-11.272-25.124-25.128C16.561,27.851,27.832,16.582,41.685,16.582 M41.685,10.582    c-17.195,0-31.124,13.927-31.124,31.121c0,17.191,13.929,31.128,31.124,31.128c17.198,0,31.127-13.937,31.127-31.128    C72.813,24.509,58.883,10.582,41.685,10.582L41.685,10.582z"
   id="path16815"
   style="fill:#808080" />
	</g>
</g>
<g
   id="g16820">
</g>
<g
   id="g16822">
</g>
<g
   id="g16824">
</g>
<g
   id="g16826">
</g>
<g
   id="g16828">
</g>
<g
   id="g16830">
</g>
<g
   id="g16832">
</g>
<g
   id="g16834">
</g>
<g
   id="g16836">
</g>
<g
   id="g16838">
</g>
<g
   id="g16840">
</g>
<g
   id="g16842">
</g>
<g
   id="g16844">
</g>
<g
   id="g16846">
</g>
<g
   id="g16848">
</g>
</svg>
